<svg id="Capa_1" data-name="Capa 1" xmlns="http://www.w3.org/2000/svg" xmlns:xlink="http://www.w3.org/1999/xlink" viewBox="0 0 144 44"><defs><style>.cls-1{fill:#f2a343;}.cls-2{fill:#ad6433;}.cls-3,.cls-9{fill:#002d54;}.cls-4{fill:#00675c;}.cls-5{clip-path:url(#clip-path);}.cls-6{fill:#fff;}.cls-7{fill:#be7d44;}.cls-8{clip-path:url(#clip-path-2);}.cls-9{fill-rule:evenodd;}</style><clipPath id="clip-path"><path class="cls-1" d="M20.431,28.846c1.077,0,2.15.238,2.081.8s-.977.544-1.787.418a12.176,12.176,0,0,0-2.472-.021,39.3,39.3,0,0,0-4.01.551,36.454,36.454,0,0,1-5.112.394c-.446,0-1.984-.07-1.984-1.286,0-.7.574-.643.574-1.439a35.094,35.094,0,0,1,.2-3.686,13.52,13.52,0,0,1,.447-2.64A8.484,8.484,0,0,1,9.928,20.51a26.737,26.737,0,0,1,2.611-4.678,19.6,19.6,0,0,1,3.1-4.017c.264-.211.506-.176.816-.626.33-.478.949-1.306,1.153-1.57s.422-.511.422-.511l1.075.908s.361.1.122-.142A8.419,8.419,0,0,1,17.9,8.3a3.326,3.326,0,0,1,.15-1.278c.115-.334.282-.766.282-.766a1.315,1.315,0,0,1-.521-1.2c0-.565.275-1.041.477-1.041a1.5,1.5,0,0,1,.89.494c.27.3.237.431.237.431a4.168,4.168,0,0,1,1.348-.459,3.438,3.438,0,0,1,1.418.194,2.371,2.371,0,0,1,.987-.547c.3-.081.38-.009.468.229a4.472,4.472,0,0,1,.2,1.085,1.74,1.74,0,0,1-.466,1.145,4.865,4.865,0,0,1,.185,1.382,1.6,1.6,0,0,1-.113.753,2.138,2.138,0,0,1-.583.7,1.605,1.605,0,0,1-.151.8,2.922,2.922,0,0,1-.343.36,1.368,1.368,0,0,1-.326.548,2.2,2.2,0,0,1-.89.167.722.722,0,0,1-.723-.229c-.176-.221-.37-.493-.37-.493s-.213-.026-.079.193.556.846.556.846,1.17.035,1.4.035a.524.524,0,0,0,.468-.229c.131-.159.414-.449.414-.449v5.5l-2.474,4.759.121-1.11s1.111-2.228,1.173-2.334a3.031,3.031,0,0,0-.088-1.111,9.114,9.114,0,0,0-.933-2.361,5.411,5.411,0,0,0-.714-1l-.167.139a7.67,7.67,0,0,1,1.049,1.8,7.355,7.355,0,0,1,.414,2.442l-1.315,2.2-.368,3.482s-.378,3.559-.389,3.7-.045.353.15.467,1.261.793,1.261.793l-1.974.088a1.249,1.249,0,0,0-.846-.555c-.512-.026-1.1-.079-1.1-.079l-.15-5.93-1.145-1.913a1.994,1.994,0,0,1,.063-.51c.08-.442.4-1.579.555-2.018s.22-.591.22-.591h-.211a10.747,10.747,0,0,0-.741,1.895,12.443,12.443,0,0,0-.353,1.268,3.4,3.4,0,0,0,.283.682c.312.593.811,1.388.811,1.388l.1,5.718L13.8,27.693l1.507-2.345V23.258a14.451,14.451,0,0,0-.975-1.272c-.62-.715-1.37-1.432-1.37-1.432s-1.161-.239-1.312-.257-.238.205-.026.266a4.38,4.38,0,0,1,1.233.456,12.294,12.294,0,0,1,1.076,1.172c.345.418.7.9.8,1.037l.03.038v1.948s-.523.795-1.058,1.524-1.1,1.419-1.1,1.419l.018.035s3.586.158,4.213.167.486.01.626.01.187.15,0,.158-3.718.36-4.8.432a13.351,13.351,0,0,1-3.208-.369.339.339,0,0,0-.314.057c-.072.078-.1.243.095.384a8.491,8.491,0,0,0,2.9.43c.714,0,4.716-.386,6.337-.528a10.066,10.066,0,0,1,1.921-.08S19.355,28.846,20.431,28.846Z"/></clipPath><clipPath id="clip-path-2"><path class="cls-2" d="M27.083,29.86c.023.515.8.528,1.035.528s1.561-.15,2.907-.15,4.329.42,6.882.786a33.625,33.625,0,0,0,4.34.464c.721,0,1.939-.173,1.939-1.325a1.128,1.128,0,0,0-.647-1.132,41.222,41.222,0,0,0-.165-4.279,19.115,19.115,0,0,0-.5-3.346,6.127,6.127,0,0,0-.633-.7A12.118,12.118,0,0,0,41.2,19.87a55.118,55.118,0,0,0-3.661-6.2,36.455,36.455,0,0,0-2.887-3.618,4.885,4.885,0,0,0-1.019-.7,3.05,3.05,0,0,0-.7-.316,5.355,5.355,0,0,0-.445-.747c-.495-.71-1.264-1.708-1.264-1.708l-1.58,1.32-.128-.185a2.215,2.215,0,0,0,.774-.791,3.29,3.29,0,0,0,.618-1.279A5.054,5.054,0,0,0,30.5,3.687a1.323,1.323,0,0,0,.471-1.182c0-.9-.224-1.3-.376-1.389a1.265,1.265,0,0,0-.983.406c-.435.415-.588.568-.588.568a4.5,4.5,0,0,0-1.46-.386,4.239,4.239,0,0,0-1.378.336s-.048-.376-1.072-.671a.394.394,0,0,0-.519.294,2.554,2.554,0,0,0-.021,1.683,1.4,1.4,0,0,0,.375.617V6.377l.66,1,.18.172a1.468,1.468,0,0,0,.112.607c.112.143.365.245.537.619s.325.406.325.406.963.01,1.147.01a.518.518,0,0,0,.445-.263l.386-.538.15.152-.667.983H26.458L25.5,8.313v3.274a9.636,9.636,0,0,0,.419,1.488c.277.821.82,2.217,1.113,2.82s.734,1.539,1.218,2.379c.615,1.066,1.255,1.991,1.255,1.991l.06-.019-.1-.938a11.544,11.544,0,0,1-.691-1.195c-.375-.745-.752-1.682-.752-1.682a6.7,6.7,0,0,1,.237-1.657,9.1,9.1,0,0,1,1.7-3.133c.176.1.183.128.183.128a8.08,8.08,0,0,0-1.69,4.5A19.686,19.686,0,0,0,29.9,18.93s.959,8.1.992,8.282a.487.487,0,0,1-.28.537c-.259.14-.97.56-.97.56l1.951-.063s.57-.549.635-.625.3-.065.463-.065.98.043.98.043l.054-6.408s.312-.387.711-1.012a7.824,7.824,0,0,0,.6-1.131s-.237-1.325-.463-2.175a9.451,9.451,0,0,0-.452-1.347l.183-.086a19.007,19.007,0,0,1,.84,2.187c.3,1.023.441,1.508.441,1.508l-1.3,2.336L34.245,27.6l2.66.054s-.5-.7-.949-1.347a9.483,9.483,0,0,1-.826-1.248A4.625,4.625,0,0,1,35,23.625c0-.818.01-.883.01-.883s.5-.679,1.115-1.406a14.259,14.259,0,0,1,1.384-1.459,2.9,2.9,0,0,1,1.163-.366c.529-.086.7-.119.754.01s-.182.205-.463.27a4.1,4.1,0,0,0-1.313.549,18.845,18.845,0,0,0-2.058,2.65,8,8,0,0,0,.129,1.939c.086.183.982,1.457,1.443,2.1a8.414,8.414,0,0,0,.926,1.141l-5.514-.076-.151.152a24.728,24.728,0,0,1,3.338.312,34.544,34.544,0,0,0,4.158.529,5.581,5.581,0,0,0,1.658-.248.344.344,0,0,1,.387.118.314.314,0,0,1-.236.452,6.472,6.472,0,0,1-1.756.248c-1.658,0-5.03-.8-7.443-.8a19.182,19.182,0,0,0-4.867.356C27.217,29.352,27.072,29.624,27.083,29.86Z"/></clipPath></defs><title>Mesa de trabajo 1</title><path class="cls-3" d="M60.516,20.141c-.9-1.351-1.385-1.706-2.325-1.706a2.248,2.248,0,0,0-1.934.871,4.486,4.486,0,0,0-.8,2.737c0,2.222,1.088,3.619,2.816,3.619a2.89,2.89,0,0,0,1.957-.721,4.128,4.128,0,0,0,.539-.5c.057-.091.091-.114.137-.114a.1.1,0,0,1,.1.1c0,.241-.619.848-1.179,1.157a3.907,3.907,0,0,1-1.97.538,3.578,3.578,0,0,1-3.767-3.8,4.037,4.037,0,0,1,1.2-2.966A4.381,4.381,0,0,1,58.249,18.2a5.576,5.576,0,0,1,2.346.56c.1-.744.184-1.031.3-1.031a.1.1,0,0,1,.1.1c0,.023,0,.023-.046.47-.024.194-.115,1.3-.115,1.4-.011.561-.011.939-.023,1.146l.011.126v.126c0,.115-.034.172-.114.172s-.1-.068-.1-.206c0-.114-.023-.355-.057-.663Z"/><path class="cls-3" d="M69.916,22.042a4.085,4.085,0,0,1-8.165.184,4.1,4.1,0,0,1,1.638-3.275,4.475,4.475,0,0,1,2.588-.756A3.7,3.7,0,0,1,69.916,22.042ZM63.17,22.1c0,2.278,1.111,3.836,2.715,3.836A2.359,2.359,0,0,0,67.956,24.7a4.64,4.64,0,0,0,.573-2.542,4.849,4.849,0,0,0-.573-2.519A2.449,2.449,0,0,0,65.85,18.4C64.259,18.4,63.17,19.9,63.17,22.1Z"/><path class="cls-3" d="M71.711,18.734c-.241-.034-.446-.07-.629-.092-.115-.022-.228-.046-.355-.08-.127-.011-.172-.046-.172-.114s.046-.1.137-.1a.669.669,0,0,1,.138.01,16.147,16.147,0,0,0,2.222.046c.069,0,.411-.022.778-.056h.091c.1,0,.148.034.148.1,0,.126-.228.194-.767.228l-.4.058c-.023,1.293-.035,1.877-.035,2.667,0,.641,0,.641.035,4.226a8.669,8.669,0,0,0,3.5-.618c.046-.767.1-1,.241-1,.068,0,.1.047.1.15a.554.554,0,0,1-.011.125c-.023.161-.034.585-.034,1.043,0,.046,0,.046.011.5.011.194.011.194.011.435,0,.127-.023.2-.08.2-.114,0-.172-.137-.172-.4a29.9,29.9,0,0,0-3.515-.172c-.275,0-.458,0-.63.012-.87.045-1.511.068-1.58.068-.114,0-.2-.047-.2-.115,0-.126.309-.194,1.133-.274l.035-1.455V20.6Z"/><path class="cls-3" d="M83.79,19.924c0,.091-.035.137-.1.137-.091,0-.15-.137-.15-.355a4.106,4.106,0,0,0-.046-.538,9.857,9.857,0,0,0-3.72-.539c-.046.882-.057,1.26-.057,2.107,0,.264,0,.734.011,1.305a13.309,13.309,0,0,0,3.458-.423l.057-.332c.023-.3.081-.423.184-.423a.083.083,0,0,1,.09.091.187.187,0,0,1-.01.069c-.012.127-.057,1.043-.057,1.283a4.084,4.084,0,0,0,.022.56c.012.172.023.345.023.379,0,.126-.033.183-.1.183s-.091-.034-.115-.148a3.991,3.991,0,0,1-.114-.778,16.964,16.964,0,0,0-3.435-.265c-.011,1.157-.011,1.775-.011,1.844,0,.366.011.847.034,1.591a11.154,11.154,0,0,0,3.824-.549l.057-.538c.023-.241.08-.367.161-.367s.114.058.114.161v.148l-.023.584.011,1.271c0,.08-.034.126-.1.126s-.091-.046-.114-.161l-.07-.285a15.46,15.46,0,0,0-2.245-.15c-1.075-.023-1.3-.023-1.465-.023-.057,0-.057,0-.55.023-.137,0-.572.011-1.282.034-.229.011-.4.011-.435.011-.149,0-.229-.046-.229-.126s.069-.1.217-.114a3.314,3.314,0,0,0,.882-.149c.058-.962.069-1.477.069-1.992,0-2.519-.023-4.179-.056-4.842-.185-.034-.367-.07-.573-.1a2.156,2.156,0,0,0-.286-.046c-.2-.034-.3-.091-.3-.171,0-.047.034-.092.068-.092l.171.024.276-.012a1.529,1.529,0,0,1,.194.034,11.1,11.1,0,0,0,2.2.058h.892a14.967,14.967,0,0,0,2.347-.16c.091-.459.114-.527.183-.527s.115.08.115.183c0,.023,0,.023-.047.619v.275c0,.355.012.686.035,1.007Z"/><path class="cls-3" d="M91.517,19.82a3.664,3.664,0,0,0-1.293-.972,3.608,3.608,0,0,0-1.455-.309,2.82,2.82,0,0,0-2.427,1.226,3.811,3.811,0,0,0-.424,1.809c0,2.129,1.6,4.042,3.379,4.042a3.754,3.754,0,0,0,1.843-.574V22.477l-.56-.08c-.493-.011-.745-.091-.745-.241q0-.069.137-.069c.127,0,.39.012.561.023.3.034.5.046.539.046.366,0,1.42-.034,1.592-.056l.183-.012c.1,0,.172.046.172.114s-.115.138-.345.15l-.4.057c0,1.088,0,1.763-.01,2.038V24.5c0,.069,0,.069.137.286a.3.3,0,0,1,.023.091c0,.046-.058.08-.172.092a2.131,2.131,0,0,0-.824.183L91,25.362l-.5.265a4.341,4.341,0,0,1-2,.469,3.486,3.486,0,0,1-3.584-3.561,4.249,4.249,0,0,1,2.05-3.721,5.107,5.107,0,0,1,2.473-.619,5.378,5.378,0,0,1,2.152.446l.046-.3a2.158,2.158,0,0,0,.081-.367c.023-.262.068-.366.16-.366.068,0,.1.047.1.127,0,.114-.035.629-.081,1.213-.01.126-.01.561-.023,1.294l.012.251.01.379c0,.1-.034.16-.114.16-.1,0-.114-.011-.206-.824Z"/><path class="cls-3" d="M95.936,18.71c-.023.379-.023.527-.035.848v4c0,.9.012,1.179.069,1.992.962.136,1.1.183,1.1.285a.117.117,0,0,1-.126.114,1.009,1.009,0,0,1-.148-.023c-.1-.011-1.237-.057-1.65-.057a6.856,6.856,0,0,0-.961.046,4.254,4.254,0,0,1-.459.034c-.1,0-.171-.045-.171-.1,0-.114.034-.126.63-.194a3.808,3.808,0,0,0,.5-.1c.034-1.02.047-1.3.047-2.061V21.253c.01-.423.01-.791.01-.847,0-.2,0-.31-.079-1.7a6.815,6.815,0,0,1-.986-.194c-.08-.023-.126-.069-.126-.137s.034-.08.115-.08a2.6,2.6,0,0,1,.274.022c.332.034.893.058,1.557.058a11.183,11.183,0,0,0,1.283-.058.36.36,0,0,1,.1-.011c.091,0,.172.057.172.126,0,.1-.047.115-.836.218Z"/><path class="cls-3" d="M105.909,22.042a4.085,4.085,0,0,1-8.165.184,4.093,4.093,0,0,1,1.638-3.275,4.475,4.475,0,0,1,2.588-.756A3.7,3.7,0,0,1,105.909,22.042Zm-6.745.058c0,2.278,1.11,3.836,2.715,3.836A2.359,2.359,0,0,0,103.95,24.7a4.64,4.64,0,0,0,.573-2.542,4.849,4.849,0,0,0-.573-2.519,2.448,2.448,0,0,0-2.107-1.237C100.252,18.4,99.164,19.9,99.164,22.1Z"/><path class="cls-3" d="M111.953,20.268a1.171,1.171,0,0,1,.01.172c0,.137-.033.194-.091.194-.1,0-.137-.1-.137-.493-.011-.321-.172-.5-.778-.835a3.021,3.021,0,0,0-1.615-.458,2.524,2.524,0,0,0-1.775.572.944.944,0,0,0-.241.654,1.207,1.207,0,0,0,.321.79,3.981,3.981,0,0,0,2.188.537,2.649,2.649,0,0,1,2.027.848,2.265,2.265,0,0,1,.446,1.374,2.5,2.5,0,0,1-2.806,2.45,5.6,5.6,0,0,1-2.152-.436c-.023.092-.046.207-.068.345l-.046.251c-.011.264-.046.355-.127.355s-.114-.08-.114-.206l.012-.184a11.235,11.235,0,0,0,.046-1.283c0-.228-.023-.744-.058-1.51v-.058c0-.1.035-.161.092-.161.09,0,.137.127.148.4l.069.423.058.206a3.559,3.559,0,0,0,2.7,1.145c1.19,0,1.832-.4,1.832-1.133a1.218,1.218,0,0,0-.309-.778c-.194-.217-.56-.343-1.557-.515-.378-.07-.938-.16-1.649-.286a2.007,2.007,0,0,1-1.42-2.072,2.378,2.378,0,0,1,2.6-2.382,6.4,6.4,0,0,1,2.152.355,4.692,4.692,0,0,0,.137-.664c.023-.148.058-.228.127-.228s.1.057.1.16a1.752,1.752,0,0,1-.034.275c-.034.252-.1,1.477-.1,1.946Z"/><path class="cls-3" d="M55.84,42.153c.09-2.866.112-4.166.112-5.846,0-.627,0-.627-.067-6.384v-.939c-.023-.18-.023-.18-1.679-.427-.336-.067-.539-.2-.539-.4,0-.09.09-.135.224-.135,1.523.09,2.732.135,4.21.135.314,0,1.1-.045,2.061-.09C60.79,28.02,61.349,28,61.82,28c3.024,0,4.95,1.455,4.95,3.763,0,2.62-2.554,4.5-6.116,4.5a21.132,21.132,0,0,1-2.464-.157v1.657c0,2.6,0,3.069.067,4.457,1.725.067,2.732.269,2.732.582,0,.112-.112.179-.292.179l-1.388-.135-2.15-.066L55.7,42.8l-1.164.09-.582.022c-.2,0-.292-.067-.292-.2s.134-.2.425-.246c.314-.045.582-.09.785-.135Zm2.307-9.989c0,.224,0,.56-.023,1.052-.023.448-.023.763-.023,1.053,0,1.008.023,1.321.158,1.388.089.023,1.187.134,1.567.134a5.757,5.757,0,0,0,2.958-.515,3.272,3.272,0,0,0,1.59-2.935,3.787,3.787,0,0,0-3.852-3.92,5.325,5.325,0,0,0-2.128.292c-.2.135-.313.493-.313,1.12Z"/><path class="cls-3" d="M70.593,32.068a8.239,8.239,0,0,0,1-.082,2.944,2.944,0,0,1,.345-.033c.164,0,.278.065.278.164,0,.147-.181.246-.541.278a8.392,8.392,0,0,0-1.047.2c-.017,1.734-.033,3.14-.033,3.959,0,3.4.1,4.236.541,5.005A2.5,2.5,0,0,0,73.458,42.8a3.227,3.227,0,0,0,2.912-1.457,6.476,6.476,0,0,0,.588-3.14,34.024,34.024,0,0,0-.408-5.676l-.328-.018c-.786-.049-1.26-.2-1.26-.409,0-.082.065-.131.213-.131a15.12,15.12,0,0,1,1.7.131h.278a7.842,7.842,0,0,0,1.588-.114.545.545,0,0,1,.164-.017c.18,0,.31.082.31.2,0,.146-.229.213-1.407.391-.246,2.586-.295,3.387-.425,5.809a6.165,6.165,0,0,1-.687,3.157,3.716,3.716,0,0,1-3.453,1.619,4.331,4.331,0,0,1-3.827-1.8,4.962,4.962,0,0,1-.475-2.649v-.377c0-3.976,0-4.254-.064-5.76-1.129-.13-1.67-.277-1.67-.458,0-.1.082-.163.213-.147.606.033.965.065,1.1.083a6.123,6.123,0,0,0,.966.032h1.111Z"/><path class="cls-3" d="M79.607,42.915c-.147,0-.245-.065-.245-.164,0-.081.032-.1.278-.147a10.615,10.615,0,0,1,1.292-.2,40.582,40.582,0,0,0,.916-7.1c.05-.508.1-1.015.131-1.521-.753-1.114-.9-1.26-1.457-1.343-.506-.081-.7-.163-.7-.31,0-.082.1-.147.246-.147a4.321,4.321,0,0,1,.523.05,5.922,5.922,0,0,0,.8.049,9.067,9.067,0,0,0,1.31-.1c.622,1.064,1.227,2.111,1.848,3.158.507.9,1.03,1.783,1.554,2.618l.492.85c.442-1.146.8-2,1.324-3.19l1.1-2.454.424-.982.753.05h.7a5.08,5.08,0,0,0,.851-.05h.212c.229,0,.361.05.361.147,0,.163-.263.262-.737.295a3.38,3.38,0,0,0-.737.13c.017.8.017,1.1.05,1.457.016.294.033.506.295,4.352.081,1.128.131,1.848.163,2.568l.131,1.456a8.194,8.194,0,0,1,1.408.228c.131.05.2.1.2.181,0,.065-.082.114-.213.114-.114,0-.506-.016-.9-.049-.342-.033-.769-.05-1.276-.05a17.187,17.187,0,0,0-1.783.083c-.228.016-.442.032-.573.032-.18,0-.295-.082-.295-.2,0-.082,0-.082.295-.132a1.629,1.629,0,0,0,.246-.048c.262-.05.262-.05.752-.132l.442-.1c-.328-4.809-.377-5.382-.638-8.425-.982,1.9-2.389,4.908-2.929,6.282-.049.164-.131.246-.213.246-.1,0-.114-.017-.262-.278a4.913,4.913,0,0,0-.262-.442c-.409-.687-.409-.687-1.162-2l-.67-1.113c-.459-.719-.9-1.455-1.325-2.241-.164,2.045-.213,3.158-.213,4.532a30.093,30.093,0,0,0,.2,3.5,6.006,6.006,0,0,1,1.587.261.172.172,0,0,1,.131.163c0,.083-.064.132-.179.132A1.909,1.909,0,0,1,83.5,42.9l-.606-.05-.948-.033c-.2-.016-.327-.016-.458-.016-.2,0-.2,0-1.08.065-.376.033-.376.033-.719.049Z"/><path class="cls-3" d="M102.558,38.187c.917,2.372.95,2.471,1.752,4.188,1.047.1,1.554.228,1.554.425,0,.082-.082.114-.245.114-.065,0-.065,0-.7-.049-.2-.017-.36-.017-.588-.017l-3.682.1c-.213,0-.31-.065-.31-.181,0-.1.1-.147.327-.18.213-.032.409-.065.606-.1a8.66,8.66,0,0,0,1.046-.164c-.425-1.325-.506-1.538-1.046-2.9h-3.91c-.41,1.309-.459,1.521-.786,2.9,1.815.278,1.93.311,1.93.491,0,.066-.049.1-.131.1h-.082a1.641,1.641,0,0,1-.442-.032c-.195-.017-.751-.05-1.684-.066H95.95a14.082,14.082,0,0,0-1.784.1,1,1,0,0,1-.2.017c-.147,0-.228-.049-.228-.164,0-.131.081-.18.295-.212.506-.066.654-.1,1.16-.2a67.932,67.932,0,0,0,4.711-10.535c.033-.164.083-.229.164-.229.1,0,.164.1.2.344a30.9,30.9,0,0,0,1.472,4.188Zm-1.438.915-1.8-4.466c-.524,1.112-.588,1.243-1,2.274L97.455,39.1Z"/><path class="cls-3" d="M108.007,42.359a5.745,5.745,0,0,1-.033-.687c0-.082.017-.377.033-.769l.016-2.029V36.568c0-1.278-.016-1.817-.1-4.01a4.956,4.956,0,0,1-.573-.081c-.67-.065-1-.164-1-.327,0-.082.065-.132.2-.132.114,0,.506.033,1.26.1l.949.017a16.479,16.479,0,0,0,1.816-.065,4.35,4.35,0,0,1,.508-.05c.163,0,.261.066.261.164,0,.147-.474.262-1.6.393l-.049,1.652v3.011h5.5c0-1.915,0-2.143-.05-4.7-.506-.082-.7-.1-.9-.114-.475-.049-.72-.132-.72-.295,0-.1.065-.147.2-.147.049,0,.164.017.278.032.278.05,1.6.115,2.307.115.442,0,1.194-.049,1.669-.1A3.2,3.2,0,0,1,118.3,32c.131,0,.212.049.212.131,0,.163-.343.295-.915.327l-.72.082c0,.458,0,.818-.017.982l-.017,2.29.033,3.485v.851c-.017.491-.017.883-.017.949,0,.311.017.655.033,1.244,1.521.245,1.635.277,1.635.441,0,.082-.082.131-.181.131h-.1c-.6-.065-1.963-.114-3.009-.114-.132,0-.9.049-1.555.114a.2.2,0,0,1-.2-.179c0-.082.147-.115.492-.164l.278-.049a6.018,6.018,0,0,1,.9-.179c.066-1.278.083-2.308.083-3.7,0-.327,0-.54-.033-1.014h-5.514v1.685c0,1.015.016,1.816.032,3.141l.278.016a7.521,7.521,0,0,1,1.211.164c.131.033.2.082.2.164s-.065.114-.18.114l-.6-.032c-.2-.017-1.8-.066-2.03-.066-.114,0-.114,0-.768.05-.295.017-.295.017-1.064.049a1.248,1.248,0,0,1-.213.017c-.164,0-.245-.049-.245-.147,0-.131.376-.228,1.243-.343Z"/><path class="cls-3" d="M122.155,32.068a8.255,8.255,0,0,0,1-.082,2.921,2.921,0,0,1,.345-.033c.163,0,.278.065.278.164,0,.147-.181.246-.541.278a8.384,8.384,0,0,0-1.047.2c-.017,1.734-.033,3.14-.033,3.959,0,3.4.1,4.236.54,5.005A2.5,2.5,0,0,0,125.02,42.8a3.228,3.228,0,0,0,2.912-1.457,6.476,6.476,0,0,0,.589-3.14,33.891,33.891,0,0,0-.41-5.676l-.327-.018c-.786-.049-1.26-.2-1.26-.409,0-.082.065-.131.212-.131a15.116,15.116,0,0,1,1.7.131h.278a7.842,7.842,0,0,0,1.588-.114.542.542,0,0,1,.163-.017c.18,0,.31.082.31.2,0,.146-.228.213-1.406.391-.246,2.586-.295,3.387-.425,5.809a6.166,6.166,0,0,1-.687,3.157,3.717,3.717,0,0,1-3.453,1.619,4.33,4.33,0,0,1-3.827-1.8,4.952,4.952,0,0,1-.475-2.649v-.377c0-3.976,0-4.254-.065-5.76-1.128-.13-1.669-.277-1.669-.458,0-.1.082-.163.213-.147.606.033.965.065,1.1.083a6.115,6.115,0,0,0,.965.032h1.112Z"/><path class="cls-3" d="M143.776,31.11c0,.18-.066.27-.2.27-.179,0-.291-.27-.291-.694a8.412,8.412,0,0,0-.09-1.053c-1.388-.649-3.763-1.008-7.28-1.053-.089,1.726-.112,2.465-.112,4.122,0,.515,0,1.434.023,2.554a25.975,25.975,0,0,0,6.764-.829l.112-.65c.046-.582.158-.828.359-.828a.164.164,0,0,1,.179.179.345.345,0,0,1-.022.135c-.023.246-.113,2.038-.113,2.508a7.484,7.484,0,0,0,.046,1.1c.023.335.045.671.045.739,0,.246-.067.358-.2.358s-.179-.066-.224-.292a7.787,7.787,0,0,1-.224-1.522,33.114,33.114,0,0,0-6.72-.516c-.023,2.263-.023,3.472-.023,3.606,0,.717.023,1.657.069,3.113a21.862,21.862,0,0,0,7.48-1.074l.112-1.053c.045-.47.157-.717.313-.717.135,0,.224.112.224.313v.292l-.045,1.142.022,2.487c0,.157-.066.246-.2.246-.112,0-.179-.089-.224-.313l-.134-.56a29.894,29.894,0,0,0-4.391-.291c-2.1-.045-2.553-.045-2.866-.045-.112,0-.112,0-1.075.045-.269,0-1.12.022-2.509.067-.447.022-.783.022-.851.022-.291,0-.448-.089-.448-.246,0-.135.135-.2.427-.224a6.52,6.52,0,0,0,1.725-.292c.111-1.881.134-2.889.134-3.9,0-4.928-.045-8.177-.112-9.475-.358-.067-.716-.135-1.12-.2a4.288,4.288,0,0,0-.559-.089c-.381-.067-.583-.178-.583-.335,0-.09.067-.18.135-.18l.335.045L132.2,28a2.634,2.634,0,0,1,.38.066c.56.112.56.112,4.3.112h1.748a28.879,28.879,0,0,0,4.592-.313c.179-.9.223-1.03.358-1.03s.224.157.224.358c0,.046,0,.046-.089,1.21v.538c0,.694.022,1.344.066,1.971Z"/><path class="cls-4" d="M7.338,31.987,1.075,34.009a1.186,1.186,0,0,0-.936,1.756s2.681,7,2.785,7.464c0,0,.208.809,1.352.693,0,0,23.808-2.1,43.017-.023a1.132,1.132,0,0,0,1.387-1s1.352-6.026,2.207-7.6c.52-1.063-.734-1.571-.991-1.664s-4.182-1.179-5.709-1.41a2.321,2.321,0,0,0,1.223-1.837,2.541,2.541,0,0,0-.612-1.814s-.046-5.939-.8-7.788L42.22,19.15s-3.3-6.4-7.06-10.168a3.957,3.957,0,0,0-1.444-.82L32.249,6.106a6.192,6.192,0,0,0-.4-2.38,2.83,2.83,0,0,0,.243-1.283S32.006,0,30.527,0c0,0-.5-.116-1.594.774A4.259,4.259,0,0,0,27.673.513a6.019,6.019,0,0,0-1.248.208A3.389,3.389,0,0,0,24.7.236S23.2.18,23.283,3.113c0,0-.555-.277-1.745.393a3.159,3.159,0,0,0-2.184.012,2.1,2.1,0,0,0-1.536-.508s-1.214-.046-1.526,2.01a2.176,2.176,0,0,0,.347,1.525l-.428,1.964.254.3-1.421,1.86s-1.271-.2-6.332,8.8a3.128,3.128,0,0,1-.7.82,3.452,3.452,0,0,0-1.317,1.791,27.963,27.963,0,0,0-.555,6.228,2.32,2.32,0,0,0-.554,1.8A2.131,2.131,0,0,0,7.338,31.987Z"/><path class="cls-1" d="M20.431,28.846c1.077,0,2.15.238,2.081.8s-.977.544-1.787.418a12.176,12.176,0,0,0-2.472-.021,39.3,39.3,0,0,0-4.01.551,36.454,36.454,0,0,1-5.112.394c-.446,0-1.984-.07-1.984-1.286,0-.7.574-.643.574-1.439a35.094,35.094,0,0,1,.2-3.686,13.52,13.52,0,0,1,.447-2.64A8.484,8.484,0,0,1,9.928,20.51a26.737,26.737,0,0,1,2.611-4.678,19.6,19.6,0,0,1,3.1-4.017c.264-.211.506-.176.816-.626.33-.478.949-1.306,1.153-1.57s.422-.511.422-.511l1.075.908s.361.1.122-.142A8.419,8.419,0,0,1,17.9,8.3a3.326,3.326,0,0,1,.15-1.278c.115-.334.282-.766.282-.766a1.315,1.315,0,0,1-.521-1.2c0-.565.275-1.041.477-1.041a1.5,1.5,0,0,1,.89.494c.27.3.237.431.237.431a4.168,4.168,0,0,1,1.348-.459,3.438,3.438,0,0,1,1.418.194,2.371,2.371,0,0,1,.987-.547c.3-.081.38-.009.468.229a4.472,4.472,0,0,1,.2,1.085,1.74,1.74,0,0,1-.466,1.145,4.865,4.865,0,0,1,.185,1.382,1.6,1.6,0,0,1-.113.753,2.138,2.138,0,0,1-.583.7,1.605,1.605,0,0,1-.151.8,2.922,2.922,0,0,1-.343.36,1.368,1.368,0,0,1-.326.548,2.2,2.2,0,0,1-.89.167.722.722,0,0,1-.723-.229c-.176-.221-.37-.493-.37-.493s-.213-.026-.079.193.556.846.556.846,1.17.035,1.4.035a.524.524,0,0,0,.468-.229c.131-.159.414-.449.414-.449v5.5l-2.474,4.759.121-1.11s1.111-2.228,1.173-2.334a3.031,3.031,0,0,0-.088-1.111,9.114,9.114,0,0,0-.933-2.361,5.411,5.411,0,0,0-.714-1l-.167.139a7.67,7.67,0,0,1,1.049,1.8,7.355,7.355,0,0,1,.414,2.442l-1.315,2.2-.368,3.482s-.378,3.559-.389,3.7-.045.353.15.467,1.261.793,1.261.793l-1.974.088a1.249,1.249,0,0,0-.846-.555c-.512-.026-1.1-.079-1.1-.079l-.15-5.93-1.145-1.913a1.994,1.994,0,0,1,.063-.51c.08-.442.4-1.579.555-2.018s.22-.591.22-.591h-.211a10.747,10.747,0,0,0-.741,1.895,12.443,12.443,0,0,0-.353,1.268,3.4,3.4,0,0,0,.283.682c.312.593.811,1.388.811,1.388l.1,5.718L13.8,27.693l1.507-2.345V23.258a14.451,14.451,0,0,0-.975-1.272c-.62-.715-1.37-1.432-1.37-1.432s-1.161-.239-1.312-.257-.238.205-.026.266a4.38,4.38,0,0,1,1.233.456,12.294,12.294,0,0,1,1.076,1.172c.345.418.7.9.8,1.037l.03.038v1.948s-.523.795-1.058,1.524-1.1,1.419-1.1,1.419l.018.035s3.586.158,4.213.167.486.01.626.01.187.15,0,.158-3.718.36-4.8.432a13.351,13.351,0,0,1-3.208-.369.339.339,0,0,0-.314.057c-.072.078-.1.243.095.384a8.491,8.491,0,0,0,2.9.43c.714,0,4.716-.386,6.337-.528a10.066,10.066,0,0,1,1.921-.08S19.355,28.846,20.431,28.846Z"/><g class="cls-5"><polygon class="cls-6" points="14.821 22.823 15.734 21.457 16.135 21.916 16.316 28.132 13.338 27.849 15.007 25.274 14.887 23.243 14.821 22.823"/><path class="cls-6" d="M20.033,10.7,19.3,10l.161-.4.474-.527.55-.13L22.1,8.932l.852.658s.172.9-.324,1.292-.656.549-1.163.549c-.231,0-.581.107-.857-.059A1.93,1.93,0,0,1,20.033,10.7Z"/></g><path class="cls-7" d="M22.743,29.641h.643a1.241,1.241,0,0,0-.615-1c-.583-.283-1.183-.4-1.323-.609s-.176-.6-.255-2.511c-.026-.632,0-2.246.093-3.532.074-1.038.215-1.851.215-1.851l-.078.08-1.585,2.483s-.451,4.2-.451,4.319a.337.337,0,0,0,.168.343c.159.088,1.313.73,1.48.881a.756.756,0,0,1,.2.247,2.351,2.351,0,0,1,1.19.547A1.09,1.09,0,0,1,22.743,29.641Z"/><path class="cls-3" d="M20.1,7.792a1.9,1.9,0,0,0,.113.221c.086.145.152-.151.152-.151a4.662,4.662,0,0,1-.384-.983c-.083-.412-.093-.46-.093-.46l-.212.069.114.554H18.7l-.011.135H19l.386.615Z"/><polygon class="cls-6" points="19.998 7.639 19.455 7.639 19.178 7.194 19.385 7.194 19.648 7.615 19.791 7.189 19.998 7.639"/><path class="cls-3" d="M21.614,6.64l.239.006-.032.369h1.031l-.4.759-.777,0s-.126.286-.167.347-.222.048-.1-.206a1.969,1.969,0,0,0,.211-.9C21.621,6.816,21.614,6.64,21.614,6.64Z"/><polygon class="cls-6" points="21.832 7.156 21.974 7.156 22.152 7.581 22.363 7.156 22.635 7.156 22.397 7.584 21.69 7.613 21.832 7.156"/><path class="cls-6" d="M18.317,5.731l.3-.651-.463-.5s-.27.13-.319.271.044.35.025.515A.392.392,0,0,0,18,5.735a1.062,1.062,0,0,0,.159.121Z"/><path class="cls-3" d="M18.163,6.059a2.913,2.913,0,0,1,.372-.58,1.424,1.424,0,0,1,.369-.368,7.436,7.436,0,0,0-.758-.706c-.169-.093-.161,0-.1.069s.38.418.358.632-.162.335-.218.489a.7.7,0,0,0-.04.479Z"/><path class="cls-6" d="M22.934,4.67a1,1,0,0,1,.294.678,1.289,1.289,0,0,1-.345.754,7.067,7.067,0,0,1-.264-.739A2.941,2.941,0,0,1,22.934,4.67Z"/><path class="cls-7" d="M24.4,29.652h.519a5.506,5.506,0,0,1,.6-.754,1.2,1.2,0,0,1,.463-.309,1.963,1.963,0,0,1,.556-.081l0,.074a1.867,1.867,0,0,0-.6.636c-.138.332-.1.445-.1.445h.668a1.132,1.132,0,0,1,.259-.51,2.688,2.688,0,0,1,1.459-.646c.271-.065.2-.045.2-.045a.449.449,0,0,1,.155-.223.355.355,0,0,1,.182-.089l1.161-4.187-.216-2.284S28.1,19.31,28.059,19.245s-.08.008-.08.116a22.578,22.578,0,0,1-.314,3.474c-.31,1.816-.97,4.571-.97,4.571a2.3,2.3,0,0,1-.15.408c-.086.163-.065.172-.356.248a6.463,6.463,0,0,0-1.195.527.983.983,0,0,0-.4.474A1.555,1.555,0,0,0,24.4,29.652Z"/><path class="cls-2" d="M27.083,29.86c.023.515.8.528,1.035.528s1.561-.15,2.907-.15,4.329.42,6.882.786a33.625,33.625,0,0,0,4.34.464c.721,0,1.939-.173,1.939-1.325a1.128,1.128,0,0,0-.647-1.132,41.222,41.222,0,0,0-.165-4.279,19.115,19.115,0,0,0-.5-3.346,6.127,6.127,0,0,0-.633-.7A12.118,12.118,0,0,0,41.2,19.87a55.118,55.118,0,0,0-3.661-6.2,36.455,36.455,0,0,0-2.887-3.618,4.885,4.885,0,0,0-1.019-.7,3.05,3.05,0,0,0-.7-.316,5.355,5.355,0,0,0-.445-.747c-.495-.71-1.264-1.708-1.264-1.708l-1.58,1.32-.128-.185a2.215,2.215,0,0,0,.774-.791,3.29,3.29,0,0,0,.618-1.279A5.054,5.054,0,0,0,30.5,3.687a1.323,1.323,0,0,0,.471-1.182c0-.9-.224-1.3-.376-1.389a1.265,1.265,0,0,0-.983.406c-.435.415-.588.568-.588.568a4.5,4.5,0,0,0-1.46-.386,4.239,4.239,0,0,0-1.378.336s-.048-.376-1.072-.671a.394.394,0,0,0-.519.294,2.554,2.554,0,0,0-.021,1.683,1.4,1.4,0,0,0,.375.617V6.377l.66,1,.18.172a1.468,1.468,0,0,0,.112.607c.112.143.365.245.537.619s.325.406.325.406.963.01,1.147.01a.518.518,0,0,0,.445-.263l.386-.538.15.152-.667.983H26.458L25.5,8.313v3.274a9.636,9.636,0,0,0,.419,1.488c.277.821.82,2.217,1.113,2.82s.734,1.539,1.218,2.379c.615,1.066,1.255,1.991,1.255,1.991l.06-.019-.1-.938a11.544,11.544,0,0,1-.691-1.195c-.375-.745-.752-1.682-.752-1.682a6.7,6.7,0,0,1,.237-1.657,9.1,9.1,0,0,1,1.7-3.133c.176.1.183.128.183.128a8.08,8.08,0,0,0-1.69,4.5A19.686,19.686,0,0,0,29.9,18.93s.959,8.1.992,8.282a.487.487,0,0,1-.28.537c-.259.14-.97.56-.97.56l1.951-.063s.57-.549.635-.625.3-.065.463-.065.98.043.98.043l.054-6.408s.312-.387.711-1.012a7.824,7.824,0,0,0,.6-1.131s-.237-1.325-.463-2.175a9.451,9.451,0,0,0-.452-1.347l.183-.086a19.007,19.007,0,0,1,.84,2.187c.3,1.023.441,1.508.441,1.508l-1.3,2.336L34.245,27.6l2.66.054s-.5-.7-.949-1.347a9.483,9.483,0,0,1-.826-1.248A4.625,4.625,0,0,1,35,23.625c0-.818.01-.883.01-.883s.5-.679,1.115-1.406a14.259,14.259,0,0,1,1.384-1.459,2.9,2.9,0,0,1,1.163-.366c.529-.086.7-.119.754.01s-.182.205-.463.27a4.1,4.1,0,0,0-1.313.549,18.845,18.845,0,0,0-2.058,2.65,8,8,0,0,0,.129,1.939c.086.183.982,1.457,1.443,2.1a8.414,8.414,0,0,0,.926,1.141l-5.514-.076-.151.152a24.728,24.728,0,0,1,3.338.312,34.544,34.544,0,0,0,4.158.529,5.581,5.581,0,0,0,1.658-.248.344.344,0,0,1,.387.118.314.314,0,0,1-.236.452,6.472,6.472,0,0,1-1.756.248c-1.658,0-5.03-.8-7.443-.8a19.182,19.182,0,0,0-4.867.356C27.217,29.352,27.072,29.624,27.083,29.86Z"/><g class="cls-8"><polygon class="cls-6" points="34.468 20.749 35.8 22.083 35.353 22.742 35.277 24.462 35.503 25.21 37.448 27.828 33.857 27.902 34.006 21.321 34.468 20.749"/><polygon class="cls-6" points="25.563 7.511 25.776 7.121 26.498 6.68 27.297 6.575 27.157 6.518 27.451 6.555 27.391 6.582 28.199 6.582 29.09 7.171 29.216 7.919 28.84 8.577 28.156 9.313 26.627 9.348 25.725 8.289 25.563 7.511"/></g><path class="cls-3" d="M25.275,4.543l1.043.008s-.02-.492-.025-.517.183-.139.189.005a3.871,3.871,0,0,0,.057.708,3.763,3.763,0,0,1,.17.656v.149s-.058.048-.125-.076-.112-.226-.112-.226l-.708.133s-.439-.661-.471-.728A.166.166,0,0,1,25.275,4.543Z"/><path class="cls-6" d="M25.57,4.761l.29.418a2.528,2.528,0,0,0,.325-.036c.137-.026.293-.04.293-.04l-.093-.362-.119-.008-.128.4-.216-.373Z"/><path class="cls-3" d="M28.059,5.277a5.068,5.068,0,0,1,.224-.687c.087-.283.153-.62.163-.672s.2-.072.176.026-.119.518-.119.518l1.211-.031,0,.272-.228.011-.475.63-.756-.026a2.338,2.338,0,0,1-.09.22c-.032.057-.114.023-.114-.091S28.059,5.395,28.059,5.277Z"/><path class="cls-6" d="M28.329,5.087c.02,0,.611.087.611.087l.307-.488h-.266l-.244.426L28.593,4.7l-.124,0A2.888,2.888,0,0,0,28.329,5.087Z"/><path class="cls-6" d="M29.842,2.432l-.028-.41.511-.592s.38.086.378.706c-.006.98-.4,1.179-.4,1.179Z"/><path class="cls-6" d="M25.007,1.844s-.191.057-.145.542a2.1,2.1,0,0,1,.022.534.291.291,0,0,0,.31.307l.332-.865Z"/><polygon class="cls-3" points="20.111 8.773 20.127 9.028 20.85 9.321 20.845 9.707 20.035 10.205 20.03 10.397 20.22 10.397 20.404 10.25 21.572 10.25 21.701 10.402 21.913 10.402 21.913 10.2 21.088 9.702 21.088 9.31 21.725 8.979 21.718 8.703 20.111 8.773"/><path class="cls-3" d="M26.291,8.175H26.5v-.1h1.484l.092.144h.094l.127-.127-.032-.118-.842-.464V7.083l.754-.426v-.22h-1.7v.239l.622.358V7.5l-.722.42a.244.244,0,0,0-.069.1A.48.48,0,0,0,26.291,8.175Z"/><path class="cls-3" d="M24.928,1.653c.051-.042.143-.022.28.14s.55.587.55.587a3.6,3.6,0,0,0-.4.663,2.648,2.648,0,0,0-.253.668s-.087-.061.016-.644.181-.7.111-.867a.792.792,0,0,0-.252-.35C24.884,1.775,24.877,1.695,24.928,1.653Z"/><path class="cls-3" d="M22.97,4.482a.861.861,0,0,1-.113.415.677.677,0,0,0-.064.652,1.035,1.035,0,0,1,.117.425c-.005.025-.035.171-.035.171s-.093-.223-.277-.569a1.952,1.952,0,0,0-.4-.528Z"/><path class="cls-3" d="M29.474,2.216a3.419,3.419,0,0,1,.539.689,4.551,4.551,0,0,0,.3.5,1.329,1.329,0,0,0-.1-.561c-.129-.447-.392-.641-.194-.949a4.964,4.964,0,0,1,.351-.505c.054-.054-.023-.135-.124-.027-.058.062-.313.274-.511.494A2.491,2.491,0,0,0,29.474,2.216Z"/><path class="cls-9" d="M1.126,35.352S3.9,42.8,3.913,42.842a.062.062,0,0,0,.075.052c1.322-.151,25.305-2.82,43.5,0a.066.066,0,0,0,.081-.065,50.4,50.4,0,0,1,2.275-7.888s.032-.076-.033-.1c-1.435-.5-25.647-7.245-44.707-.974L1.176,35.188C1.077,35.222,1.126,35.352,1.126,35.352Z"/><path class="cls-6" d="M9.05,36.073l.368-.065.1-.018A.143.143,0,0,1,9.61,36a.114.114,0,0,1,.067.063q.023.048.049.095c.032.054.06.108.086.163s.056.111.089.167c.093.178.186.355.278.533s.184.356.277.533c.025.049.049.1.076.146s.049.1.074.147c.015.025.029.051.041.077a.293.293,0,0,0,.049.067A.019.019,0,0,0,10.71,38l.018.009a.065.065,0,0,0,.059-.055c.005-.03.011-.058.015-.084.014-.068.023-.137.03-.207s.015-.142.027-.216q.049-.317.089-.631c.028-.21.058-.421.089-.633.008-.051.014-.1.021-.152s.014-.1.021-.151A.4.4,0,0,0,11.1,35.8a.106.106,0,0,1,.038-.067A.116.116,0,0,1,11.2,35.7l.089-.016.305-.053.091-.016a.133.133,0,0,1,.075.005.069.069,0,0,1,.047.079c0,.043-.006.078-.01.107-.015.075-.027.152-.038.229s-.02.156-.032.233a.45.45,0,0,0-.011.058.411.411,0,0,1-.006.058c-.013.068-.024.137-.031.207s-.019.141-.032.212c-.039.26-.078.522-.117.782s-.077.523-.117.782c-.015.075-.027.15-.036.224s-.019.149-.032.223c-.008.046-.017.087-.025.124a.13.13,0,0,1-.08.086.3.3,0,0,1-.08.021l-.088.012-.328.057-.106.021a.156.156,0,0,1-.1,0,.13.13,0,0,1-.081-.072c-.017-.036-.036-.071-.054-.106-.032-.06-.064-.121-.095-.183s-.063-.123-.095-.183c-.1-.18-.2-.36-.292-.544s-.192-.367-.293-.55c-.041-.083-.084-.165-.125-.248S9.43,37.083,9.387,37a.409.409,0,0,1-.043-.077.468.468,0,0,0-.041-.078c-.043-.08-.084-.16-.124-.239s-.083-.159-.127-.237c-.012-.027-.025-.051-.037-.076s-.027-.049-.043-.075-.01-.029-.014-.044a.081.081,0,0,1,0-.043.077.077,0,0,1,.051-.051.036.036,0,0,1,.021-.006A.035.035,0,0,0,9.05,36.073Z"/><path class="cls-6" d="M12.317,35.537l.394-.056.1-.011a.084.084,0,0,1,.073.024.157.157,0,0,1,.037.08c.007.032.012.069.018.109l.056.4.225,1.587.106.751c.006.04.013.084.022.132a.2.2,0,0,1-.005.113.135.135,0,0,1-.075.062.179.179,0,0,1-.067.014.548.548,0,0,0-.074.005l-.27.038c-.034,0-.065.008-.094.009a.123.123,0,0,1-.075-.018.11.11,0,0,1-.038-.064.77.77,0,0,1-.017-.1l-.057-.4-.237-1.67-.1-.667c0-.043-.012-.093-.023-.151a.224.224,0,0,1,0-.126.134.134,0,0,1,.052-.054.09.09,0,0,0,.025-.006Z"/><path class="cls-6" d="M16.732,38.21a.062.062,0,0,1,0,.05.072.072,0,0,1-.022.035.1.1,0,0,1-.073.029l-.1.009-.253.027a1.179,1.179,0,0,1-.13.008.109.109,0,0,1-.088-.044.3.3,0,0,1-.056-.142,1.036,1.036,0,0,0-.043-.163.253.253,0,0,0-.005-.034.123.123,0,0,1-.005-.03.475.475,0,0,1-.027-.115.692.692,0,0,0-.021-.112.15.15,0,0,1-.01-.04c-.01-.033-.019-.067-.027-.1a.7.7,0,0,0-.032-.1.94.94,0,0,0-.108-.179.3.3,0,0,0-.155-.108.308.308,0,0,0-.047-.009.341.341,0,0,1-.053-.008.594.594,0,0,0-.194-.006l-.213.023-.376.04c-.025.01-.045.016-.063.021a.076.076,0,0,0-.044.032.209.209,0,0,0-.016.145c.01.065.018.122.023.175l.065.587c0,.025,0,.051.006.076s0,.052.005.076l.008.067a.128.128,0,0,1,0,.054.083.083,0,0,1-.049.06.153.153,0,0,1-.055.016l-.069.008-.206.022-.156.02a.191.191,0,0,1-.128-.017.094.094,0,0,1-.047-.081l-.012-.121-.306-2.792c0-.034-.008-.069-.013-.106a.141.141,0,0,1,.01-.089.134.134,0,0,1,.064-.054.032.032,0,0,1,.021,0,.029.029,0,0,0,.019,0l1.562-.171q.074-.008.14-.012a.612.612,0,0,1,.128,0,.13.13,0,0,0,.049,0,.132.132,0,0,1,.049,0l.067.011a.619.619,0,0,1,.066.017,1.026,1.026,0,0,1,.225.1.715.715,0,0,1,.179.152.222.222,0,0,1,.035.045.246.246,0,0,0,.036.045.554.554,0,0,1,.069.127c.018.044.037.094.058.147a.076.076,0,0,1,.007.037.068.068,0,0,0,.011.035l0,.041a.3.3,0,0,1,.014.089.606.606,0,0,1,0,.087.291.291,0,0,0,0,.067.218.218,0,0,1,0,.063c-.011.047-.021.093-.033.136a.5.5,0,0,1-.047.123.2.2,0,0,1-.019.033c-.008.012-.015.023-.021.032s-.016.027-.025.04a.3.3,0,0,1-.031.036l-.051.052a.672.672,0,0,1-.054.052c-.011.01-.022.022-.033.034a.1.1,0,0,0-.023.042.041.041,0,0,0,.014.045.187.187,0,0,0,.035.024l.1.063a.347.347,0,0,1,.088.079.709.709,0,0,1,.1.152,1.581,1.581,0,0,1,.08.181.478.478,0,0,1,.021.086.451.451,0,0,0,.022.087.326.326,0,0,0,.008.052c0,.017.005.035.007.053a.115.115,0,0,1,.007.038.169.169,0,0,0,.007.044.11.11,0,0,1,.007.036.156.156,0,0,0,.006.041.427.427,0,0,1,.02.1.623.623,0,0,0,.02.095l.023.082c.009.027.019.053.027.081Zm-.983-1.989a.424.424,0,0,0-.012-.124.689.689,0,0,0-.027-.108.074.074,0,0,1-.012-.031.067.067,0,0,0-.012-.027.367.367,0,0,0-.226-.184.464.464,0,0,0-.183-.022c-.068,0-.138.01-.212.018l-.532.058c-.006.007-.012.01-.018.008H14.5a.112.112,0,0,0-.069.054.174.174,0,0,0-.011.1c.006.038.011.075.015.112l.047.427.012.11a.145.145,0,0,0,.032.085.092.092,0,0,0,.064.03.678.678,0,0,0,.093,0,.979.979,0,0,0,.106-.009c.036-.006.069-.011.1-.014l.271-.029.069,0a.183.183,0,0,0,.063-.014l.06-.007a.268.268,0,0,1,.069-.017.237.237,0,0,0,.066-.016.561.561,0,0,0,.131-.075.36.36,0,0,0,.092-.108.374.374,0,0,0,.031-.1C15.739,36.3,15.745,36.266,15.749,36.221Z"/><path class="cls-6" d="M18.671,34.875l.469-.033c.04,0,.08,0,.117-.006a.19.19,0,0,1,.1.018.063.063,0,0,1,.023.029c.005.014.01.028.015.043v.023a.171.171,0,0,1,.008.041c0,.016,0,.03,0,.046l.014.18a.438.438,0,0,0,.007.062.15.15,0,0,1,0,.058.1.1,0,0,1-.087.089c-.045.007-.1.012-.165.017l-.47.034a1.267,1.267,0,0,0-.159.019.1.1,0,0,0-.083.091.114.114,0,0,0,0,.041.067.067,0,0,1,0,.042.284.284,0,0,0,0,.062q0,.034.006.062l.03.41.094,1.327.032.433a1.012,1.012,0,0,1,0,.128.09.09,0,0,1-.052.08.279.279,0,0,1-.073.015l-.078,0-.314.023a.878.878,0,0,1-.094,0,.1.1,0,0,1-.069-.027.181.181,0,0,1-.03-.093q0-.058-.008-.117l-.033-.461-.091-1.281-.027-.392c0-.021,0-.043,0-.067a.158.158,0,0,0-.01-.062.09.09,0,0,1,0-.042.053.053,0,0,0-.007-.036.106.106,0,0,0-.1-.078,1.66,1.66,0,0,0-.169,0l-.428.03-.112.011a.4.4,0,0,1-.1,0,.113.113,0,0,1-.059-.037.137.137,0,0,1-.019-.059.68.68,0,0,1-.008-.074l-.017-.226a.678.678,0,0,1,0-.106.1.1,0,0,1,.038-.073.221.221,0,0,1,.049-.022l.023,0Z"/><path class="cls-6" d="M19.977,34.79l.392-.014c.034,0,.068,0,.1,0a.1.1,0,0,1,.073.029.209.209,0,0,1,.029.095c0,.038,0,.077.007.117l.015.466.033.951.005.162v.04a.105.105,0,0,0,0,.039l0,.073v.088a.313.313,0,0,0,.011.083.132.132,0,0,0,.007.051c.005.033.012.067.019.1a.368.368,0,0,0,.03.1.594.594,0,0,0,.138.195.568.568,0,0,0,.219.117.693.693,0,0,0,.074.012.55.55,0,0,1,.074.011.087.087,0,0,0,.042.005.116.116,0,0,1,.04,0,.364.364,0,0,0,.117-.009l.069,0a.6.6,0,0,1,.074-.017.386.386,0,0,0,.068-.016.454.454,0,0,0,.1-.035.478.478,0,0,0,.236-.249A.815.815,0,0,0,22,36.9c0-.109,0-.222,0-.339l-.033-.919-.021-.619c0-.043,0-.09-.008-.143a.186.186,0,0,1,.022-.116.1.1,0,0,1,.063-.037.7.7,0,0,1,.093-.01l.294-.01.071,0a.207.207,0,0,1,.068,0,.117.117,0,0,1,.084.043.185.185,0,0,1,.025.1c0,.045,0,.086,0,.122l.021.618.032.933c0,.116.006.231.008.341a1.3,1.3,0,0,1-.032.3,1.583,1.583,0,0,1-.151.382.9.9,0,0,1-.251.279,1.262,1.262,0,0,1-.332.178.826.826,0,0,1-.084.026l-.086.021a.165.165,0,0,1-.052.011.153.153,0,0,0-.054.011c-.036.008-.078.013-.124.019s-.091.008-.133.009a2.1,2.1,0,0,1-.751-.083.978.978,0,0,1-.5-.35,1.024,1.024,0,0,1-.106-.17,1.993,1.993,0,0,1-.078-.194.115.115,0,0,1-.011-.039.11.11,0,0,0-.01-.039,1,1,0,0,1-.047-.289c0-.108-.008-.216-.011-.324L19.87,35.33l-.012-.324c0-.03,0-.06,0-.09a.158.158,0,0,1,.011-.071.149.149,0,0,1,.072-.049h.019A.04.04,0,0,0,19.977,34.79Z"/><path class="cls-6" d="M24.462,34.626a1.307,1.307,0,0,1,1.233.533.71.71,0,0,1,.072.152c.016.053.033.11.048.171a.283.283,0,0,1,.007.086.116.116,0,0,1-.021.071.1.1,0,0,1-.065.035.626.626,0,0,1-.093.007H25.27a.2.2,0,0,1-.07-.01.109.109,0,0,1-.069-.073.594.594,0,0,0-.038-.1.451.451,0,0,0-.049-.1.316.316,0,0,0-.069-.078,1.187,1.187,0,0,0-.125-.079.709.709,0,0,0-.137-.04,1.29,1.29,0,0,0-.165-.021.993.993,0,0,0-.169,0,.543.543,0,0,0-.148.037.46.46,0,0,0-.164.108.355.355,0,0,0-.08.186.156.156,0,0,0-.005.072.206.206,0,0,0,.014.062.256.256,0,0,0,.1.137,1.263,1.263,0,0,0,.161.077.5.5,0,0,0,.1.034c.035.008.071.019.108.03.083.027.169.052.257.072s.175.043.261.067a.126.126,0,0,0,.047.01.127.127,0,0,1,.046.009c.061.021.126.042.192.06a.666.666,0,0,1,.178.078,1.805,1.805,0,0,1,.214.158.881.881,0,0,1,.167.2.391.391,0,0,1,.04.083c.01.03.021.061.034.092a.074.074,0,0,1,0,.025.038.038,0,0,0,.005.021.782.782,0,0,1,.018.185.065.065,0,0,1,0,.045v.084c-.006.034-.012.067-.016.1a.775.775,0,0,1-.021.092,1.474,1.474,0,0,1-.06.152.848.848,0,0,1-.079.134.345.345,0,0,1-.036.039.184.184,0,0,0-.033.039.616.616,0,0,1-.051.054c-.019.016-.038.033-.06.049l-.047.036-.054.038a1,1,0,0,1-.164.082L25.132,38a.555.555,0,0,1-.135.03c-.046,0-.092.012-.139.021a.172.172,0,0,1-.062.007.15.15,0,0,0-.058.007H24.7l-.026,0a.052.052,0,0,0-.025,0,.508.508,0,0,1-.078,0,.437.437,0,0,1-.08,0h-.045a.219.219,0,0,0-.067-.007.154.154,0,0,1-.062-.007l-.041,0-.042-.007c-.037-.01-.076-.017-.115-.023a.664.664,0,0,1-.111-.028,1.65,1.65,0,0,1-.4-.188.973.973,0,0,1-.286-.3.892.892,0,0,1-.115-.264.314.314,0,0,1-.012-.056.288.288,0,0,0-.011-.06.563.563,0,0,1-.014-.09.112.112,0,0,1,.018-.081.1.1,0,0,1,.067-.044.74.74,0,0,1,.1-.007h.369a.184.184,0,0,1,.075.014.1.1,0,0,1,.059.076.528.528,0,0,0,.033.108.516.516,0,0,0,.046.1.9.9,0,0,0,.06.088.5.5,0,0,0,.051.051c.019.015.037.03.056.042a.949.949,0,0,0,.248.106.226.226,0,0,0,.063.009.276.276,0,0,1,.066.01h.023a.541.541,0,0,0,.2,0,.186.186,0,0,1,.047,0,.339.339,0,0,1,.048-.007.181.181,0,0,0,.048-.012.694.694,0,0,0,.25-.111.38.38,0,0,0,.13-.23.167.167,0,0,0,0-.074.42.42,0,0,0-.016-.065.377.377,0,0,0-.157-.194c-.01-.006-.027-.016-.051-.027a.688.688,0,0,0-.155-.068l-.169-.054-.062-.016-.067-.017a1.5,1.5,0,0,0-.15-.039c-.051-.012-.1-.024-.145-.039a.092.092,0,0,0-.036-.01.074.074,0,0,1-.032-.009l-.067-.019c-.019-.006-.043-.012-.067-.018-.071-.025-.138-.051-.2-.077a1.212,1.212,0,0,1-.178-.091,1.023,1.023,0,0,1-.194-.162.71.71,0,0,1-.139-.213.472.472,0,0,1-.027-.085l-.023-.1a.721.721,0,0,1-.014-.12.567.567,0,0,1,0-.128.219.219,0,0,0,.006-.056c.008-.034.016-.067.023-.1a.513.513,0,0,1,.026-.092.928.928,0,0,1,.178-.275,1.438,1.438,0,0,1,.253-.205.835.835,0,0,1,.2-.087c.07-.021.146-.042.226-.06a.863.863,0,0,1,.09-.011.5.5,0,0,0,.089-.012.119.119,0,0,1,.045,0C24.442,34.634,24.456,34.632,24.462,34.626Z"/><path class="cls-6" d="M27.57,34.738l.373.016.1,0a.15.15,0,0,1,.084.027.11.11,0,0,1,.052.076,1.018,1.018,0,0,0,.027.1c.019.059.034.118.049.177s.03.12.049.183c.052.194.1.387.155.581s.1.387.157.581c.014.053.027.106.043.159s.027.1.04.158l.025.085a.266.266,0,0,0,.034.075.018.018,0,0,0,.01.012.041.041,0,0,1,.016.012.064.064,0,0,0,.069-.041l.033-.079a1.928,1.928,0,0,0,.074-.2c.022-.067.047-.135.074-.2q.116-.3.224-.6c.073-.2.148-.4.225-.6.016-.048.034-.1.052-.143s.035-.094.052-.143a.563.563,0,0,0,.034-.072.1.1,0,0,1,.051-.058.129.129,0,0,1,.078-.021l.09,0,.309.014.093,0a.141.141,0,0,1,.073.022.069.069,0,0,1,.029.087c-.012.041-.023.076-.033.1-.032.069-.06.141-.086.215s-.055.148-.082.22a.261.261,0,0,0-.023.054.577.577,0,0,1-.019.055c-.026.063-.052.128-.076.2s-.048.133-.076.2q-.142.368-.283.738c-.094.246-.189.493-.283.738a2.143,2.143,0,0,0-.084.211c-.024.071-.051.141-.08.211-.017.043-.034.081-.05.116a.132.132,0,0,1-.1.067.278.278,0,0,1-.084,0l-.088-.006-.331-.015c-.035,0-.07,0-.109,0a.165.165,0,0,1-.093-.025.132.132,0,0,1-.063-.089c-.008-.039-.018-.077-.03-.115-.018-.065-.036-.131-.053-.2s-.034-.133-.053-.2c-.06-.2-.115-.4-.167-.595s-.108-.4-.167-.6c-.023-.091-.047-.18-.069-.27s-.047-.177-.073-.265a.416.416,0,0,1-.023-.084.483.483,0,0,0-.024-.084c-.024-.087-.047-.174-.069-.26s-.047-.172-.073-.259c-.005-.028-.012-.056-.019-.082s-.017-.054-.024-.082a.215.215,0,0,1,0-.047.07.07,0,0,1,.008-.041.074.074,0,0,1,.062-.038.032.032,0,0,1,.021,0A.032.032,0,0,0,27.57,34.738Z"/><path class="cls-6" d="M30.853,34.912l.4.027c.035,0,.067.005.1.009a.087.087,0,0,1,.067.04.158.158,0,0,1,.019.084c0,.034,0,.07-.005.11l-.027.4-.107,1.6-.051.756c0,.04-.005.084-.008.133a.2.2,0,0,1-.027.109.132.132,0,0,1-.086.045.173.173,0,0,1-.07,0,.625.625,0,0,0-.073-.01l-.272-.018a.939.939,0,0,1-.095-.012.124.124,0,0,1-.069-.032.112.112,0,0,1-.024-.071.8.8,0,0,1,0-.1l.027-.4.113-1.682.046-.673c0-.043,0-.094.008-.152a.221.221,0,0,1,.029-.123.138.138,0,0,1,.062-.042h.027A.056.056,0,0,1,30.853,34.912Z"/><path class="cls-6" d="M32.276,35l.373.034c.034,0,.067.005.1.006a.176.176,0,0,1,.084.024.15.15,0,0,1,.067.062l.042.078.141.277q.137.277.277.552t.277.551c.045.088.088.176.132.265s.087.176.136.261c.01.02.021.039.03.059a.211.211,0,0,0,.038.054l.022.02a.022.022,0,0,0,.027,0,.038.038,0,0,0,.035-.038.332.332,0,0,1,.016-.069.319.319,0,0,0,.009-.071c0-.026,0-.051,0-.076l.027-.289.1-1.067.016-.175c0-.016,0-.032,0-.047a.181.181,0,0,1,.005-.041l0-.051a.176.176,0,0,1,.036-.1.089.089,0,0,1,.066-.032.846.846,0,0,1,.091,0l.281.026.073.006a.2.2,0,0,1,.063.016.091.091,0,0,1,.058.086c0,.039,0,.084-.008.136l-.047.507L34.674,37.9l-.034.386c0,.034-.005.068-.008.1a.122.122,0,0,1-.022.077.086.086,0,0,1-.048.031l-.062.01-.161-.014-.253-.023L34,38.463a.139.139,0,0,1-.066-.021.181.181,0,0,1-.071-.069c-.017-.027-.032-.058-.048-.09s-.046-.092-.069-.139-.045-.093-.069-.139l-.589-1.166c-.037-.075-.073-.148-.108-.217s-.071-.142-.107-.216a.932.932,0,0,1-.046-.085.093.093,0,0,0-.076-.056.105.105,0,0,0-.045.07c0,.028-.008.062-.012.106l-.03.322-.1,1.1-.016.18a.256.256,0,0,0,0,.046.091.091,0,0,1-.012.045l0,.051a.191.191,0,0,1-.033.1.1.1,0,0,1-.065.027.7.7,0,0,1-.09,0l-.281-.025-.075-.007a.2.2,0,0,1-.063-.015.093.093,0,0,1-.058-.089,1,1,0,0,1,0-.139l.049-.528.169-1.846.038-.428c0-.034.005-.069.01-.106a.177.177,0,0,1,.026-.086.109.109,0,0,1,.069-.04h.041Z"/><path class="cls-6" d="M37.057,35.418a1.556,1.556,0,0,1,.772.264,1.364,1.364,0,0,1,.437.525.862.862,0,0,1,.064.168c.014.056.027.117.037.184,0,.021.007.047.01.075a.131.131,0,0,1-.014.077.05.05,0,0,1-.038.03l-.06.01-.037,0a.157.157,0,0,1-.062,0l-.066-.011-.1-.01c-.038,0-.075-.008-.112-.013s-.07-.014-.1-.022a.126.126,0,0,1-.111-.123.388.388,0,0,0-.034-.1.66.66,0,0,0-.2-.267.873.873,0,0,0-.2-.123.574.574,0,0,0-.191-.051.753.753,0,0,0-.207,0l-.069.008a.354.354,0,0,0-.065.014.8.8,0,0,0-.494.384c-.021.035-.038.071-.056.11s-.035.078-.056.119c-.006.021-.011.04-.016.059s-.011.037-.017.058a.149.149,0,0,0-.014.057.2.2,0,0,1-.015.06.251.251,0,0,0-.016.076c0,.026,0,.051-.006.075l-.007.037a.086.086,0,0,0,0,.037l0,.04a.11.11,0,0,1,0,.047.091.091,0,0,0,0,.047.444.444,0,0,0,0,.074c0,.035,0,.067.007.1a.719.719,0,0,0,.012.087,1.18,1.18,0,0,0,.125.349.792.792,0,0,0,.238.255.934.934,0,0,0,.1.052l.115.049.043.012.043.008.037,0a.136.136,0,0,0,.058.014.455.455,0,0,0,.06,0,.143.143,0,0,0,.042,0l.106-.005a.374.374,0,0,0,.1-.021.591.591,0,0,0,.2-.1.945.945,0,0,0,.156-.154.532.532,0,0,0,.059-.095c.016-.036.035-.071.055-.106l.038-.088a.115.115,0,0,1,.069-.057.2.2,0,0,1,.069,0l.078.01.28.034.085.012a.12.12,0,0,1,.068.027.088.088,0,0,1,.026.078.309.309,0,0,1-.024.095L38.2,38c-.022.044-.04.086-.06.127a.716.716,0,0,1-.068.117.46.46,0,0,0-.046.067.27.27,0,0,1-.044.062,1.335,1.335,0,0,1-.8.459.547.547,0,0,1-.1.016l-.1.006a.1.1,0,0,1-.044,0,.086.086,0,0,0-.044,0c-.021,0-.043,0-.062-.005H36.76l-.073-.01-.082-.01a.288.288,0,0,1-.076-.019.176.176,0,0,0-.046-.01l-.063-.017-.067-.017c-.03-.013-.058-.025-.087-.034s-.058-.021-.086-.034l-.08-.04c-.025-.014-.051-.03-.073-.045a1.434,1.434,0,0,1-.426-.376,1.6,1.6,0,0,1-.251-.513,1.334,1.334,0,0,1-.028-.143c-.006-.047-.014-.1-.024-.148a.111.111,0,0,1,0-.04.139.139,0,0,0,0-.034.76.76,0,0,1,0-.089c0-.032,0-.061,0-.089a.075.075,0,0,1,0-.04.142.142,0,0,0,0-.034l.01-.087a.194.194,0,0,1,0-.07.2.2,0,0,1,.018-.068.077.077,0,0,0,.005-.029.122.122,0,0,1,0-.025l0-.042a.44.44,0,0,0,.022-.077c0-.027.011-.054.018-.081s.015-.048.022-.07.014-.045.022-.069c.018-.041.034-.082.048-.122a.64.64,0,0,1,.051-.113c.021-.038.042-.076.063-.114a.811.811,0,0,1,.071-.1,1.958,1.958,0,0,1,.18-.211.6.6,0,0,1,.057-.053l.062-.048a1.442,1.442,0,0,1,.265-.165,1.759,1.759,0,0,1,.3-.108,1.018,1.018,0,0,1,.119-.025c.042-.006.084-.011.129-.015a.164.164,0,0,1,.055,0,.146.146,0,0,0,.052,0c.026,0,.049,0,.071,0l.072,0a.027.027,0,0,1,.023,0A.034.034,0,0,0,37.057,35.418Z"/><path class="cls-6" d="M39.209,35.792l.394.058.095.016a.086.086,0,0,1,.063.045.15.15,0,0,1,.014.086c0,.034-.008.07-.014.11l-.058.4-.233,1.586-.111.749c0,.041-.011.084-.016.133a.19.19,0,0,1-.037.107.132.132,0,0,1-.089.038.182.182,0,0,1-.069-.005.444.444,0,0,0-.073-.015l-.27-.04c-.034-.005-.065-.011-.093-.019A.135.135,0,0,1,38.645,39a.115.115,0,0,1-.018-.072c0-.032.005-.064.01-.1l.059-.4.244-1.668.1-.667c.006-.043.012-.093.018-.151a.24.24,0,0,1,.04-.12.128.128,0,0,1,.066-.037h.026A.067.067,0,0,1,39.209,35.792Z"/><path class="cls-6" d="M42.178,36.255l.465.077.117.022a.206.206,0,0,1,.089.04.054.054,0,0,1,.014.034.192.192,0,0,1,0,.045l0,.023a.215.215,0,0,1,0,.041l-.008.046-.03.178c0,.021-.006.042-.008.062a.163.163,0,0,1-.016.056.1.1,0,0,1-.1.067c-.046,0-.1-.012-.165-.023l-.465-.077c-.06-.01-.113-.016-.158-.02a.105.105,0,0,0-.1.07.089.089,0,0,0-.007.041.07.07,0,0,1-.011.04.308.308,0,0,0-.013.061c0,.023-.005.044-.008.062l-.067.406-.218,1.312-.071.428a.924.924,0,0,1-.027.124.1.1,0,0,1-.07.066.277.277,0,0,1-.074,0l-.078-.013-.31-.051a.683.683,0,0,1-.093-.02.1.1,0,0,1-.06-.043.193.193,0,0,1-.008-.1l.021-.116.075-.456L41,37.369l.065-.387c0-.022.008-.043.013-.066a.151.151,0,0,0,0-.062.1.1,0,0,1,.007-.041.074.074,0,0,0,0-.037.106.106,0,0,0-.08-.1,1.623,1.623,0,0,0-.165-.034l-.423-.071-.113-.016a.33.33,0,0,1-.1-.023.108.108,0,0,1-.048-.05.126.126,0,0,1-.006-.062l.01-.073.038-.223a.788.788,0,0,1,.024-.1.094.094,0,0,1,.055-.061.16.16,0,0,1,.053-.01l.022,0Z"/><path class="cls-6" d="M24.3,8.578a2.155,2.155,0,0,1-.786,1.491l.139,6.7-.659,1.5a39.041,39.041,0,0,0-.508,8.978,6.5,6.5,0,0,1,1.352.716s.012-.185.9-.52a2.362,2.362,0,0,0,.767-.4,30.534,30.534,0,0,0,1.151-9.151,42.192,42.192,0,0,1-2.252-5.8,1.694,1.694,0,0,1-.14-.809Z"/></svg>