<svg id="Capa_1" data-name="Capa 1" xmlns="http://www.w3.org/2000/svg" viewBox="0 0 144 44"><defs><style>.cls-1,.cls-2{fill:#fff;}.cls-2{fill-rule:evenodd;}</style></defs><title>Pumahue General</title><path class="cls-1" d="M60.516,20.136c-.9-1.351-1.385-1.706-2.325-1.706a2.248,2.248,0,0,0-1.934.871,4.486,4.486,0,0,0-.8,2.737c0,2.222,1.088,3.619,2.816,3.619a2.89,2.89,0,0,0,1.957-.721,4.128,4.128,0,0,0,.539-.5c.057-.091.091-.114.137-.114a.1.1,0,0,1,.1.1c0,.241-.619.848-1.179,1.157a3.907,3.907,0,0,1-1.97.538,3.578,3.578,0,0,1-3.767-3.8,4.037,4.037,0,0,1,1.2-2.966,4.381,4.381,0,0,1,2.955-1.156,5.576,5.576,0,0,1,2.346.56c.1-.744.184-1.031.3-1.031a.1.1,0,0,1,.1.1c0,.023,0,.023-.046.47-.024.194-.115,1.3-.115,1.4-.011.561-.011.939-.023,1.146l.011.126v.126c0,.115-.034.172-.114.172s-.1-.068-.1-.206c0-.114-.023-.355-.057-.663Z"/><path class="cls-1" d="M69.916,22.037a4.085,4.085,0,0,1-8.165.184,4.1,4.1,0,0,1,1.638-3.275,4.475,4.475,0,0,1,2.588-.756A3.7,3.7,0,0,1,69.916,22.037ZM63.17,22.1c0,2.278,1.111,3.836,2.715,3.836a2.359,2.359,0,0,0,2.071-1.237,4.64,4.64,0,0,0,.573-2.542,4.849,4.849,0,0,0-.573-2.519A2.449,2.449,0,0,0,65.85,18.4C64.259,18.4,63.17,19.9,63.17,22.1Z"/><path class="cls-1" d="M71.711,18.729c-.241-.034-.446-.07-.629-.092-.115-.022-.228-.046-.355-.08-.127-.011-.172-.046-.172-.114s.046-.1.137-.1a.669.669,0,0,1,.138.01,16.147,16.147,0,0,0,2.222.046c.069,0,.411-.022.778-.056h.091c.1,0,.148.034.148.1,0,.126-.228.194-.767.228l-.4.058c-.023,1.293-.035,1.877-.035,2.667,0,.641,0,.641.035,4.226a8.669,8.669,0,0,0,3.5-.618c.046-.767.1-1,.241-1,.068,0,.1.047.1.15a.554.554,0,0,1-.011.125c-.023.161-.034.585-.034,1.043,0,.046,0,.046.011.5.011.194.011.194.011.435,0,.127-.023.2-.08.2-.114,0-.172-.137-.172-.4a29.9,29.9,0,0,0-3.515-.172c-.275,0-.458,0-.63.012-.87.045-1.511.068-1.58.068-.114,0-.2-.047-.2-.115,0-.126.309-.194,1.133-.274l.035-1.455V20.595Z"/><path class="cls-1" d="M83.79,19.919c0,.091-.035.137-.1.137-.091,0-.15-.137-.15-.355a4.106,4.106,0,0,0-.046-.538,9.857,9.857,0,0,0-3.72-.539c-.046.882-.057,1.26-.057,2.107,0,.264,0,.734.011,1.305a13.309,13.309,0,0,0,3.458-.423l.057-.332c.023-.3.081-.423.184-.423a.083.083,0,0,1,.09.091.187.187,0,0,1-.01.069c-.012.127-.057,1.043-.057,1.283a4.084,4.084,0,0,0,.022.56c.012.172.023.345.023.379,0,.126-.033.183-.1.183s-.091-.034-.115-.148a3.991,3.991,0,0,1-.114-.778,16.964,16.964,0,0,0-3.435-.265c-.011,1.157-.011,1.775-.011,1.844,0,.366.011.847.034,1.591a11.154,11.154,0,0,0,3.824-.549l.057-.538c.023-.241.08-.367.161-.367s.114.058.114.161v.148l-.023.584.011,1.271c0,.08-.034.126-.1.126s-.091-.046-.114-.161l-.07-.285a15.46,15.46,0,0,0-2.245-.15c-1.075-.023-1.3-.023-1.465-.023-.057,0-.057,0-.55.023-.137,0-.572.011-1.282.034-.229.011-.4.011-.435.011-.149,0-.229-.046-.229-.126s.069-.1.217-.114a3.314,3.314,0,0,0,.882-.149c.058-.962.069-1.477.069-1.992,0-2.519-.023-4.179-.056-4.842-.185-.034-.367-.07-.573-.1a2.156,2.156,0,0,0-.286-.046c-.2-.034-.3-.091-.3-.171,0-.047.034-.092.068-.092l.171.024.276-.012a1.529,1.529,0,0,1,.194.034,11.1,11.1,0,0,0,2.2.058h.892a14.967,14.967,0,0,0,2.347-.16c.091-.459.114-.527.183-.527s.115.08.115.183c0,.023,0,.023-.047.619v.275c0,.355.012.686.035,1.007Z"/><path class="cls-1" d="M91.517,19.815a3.664,3.664,0,0,0-1.293-.972,3.608,3.608,0,0,0-1.455-.309,2.82,2.82,0,0,0-2.427,1.226,3.811,3.811,0,0,0-.424,1.809c0,2.129,1.6,4.042,3.379,4.042a3.754,3.754,0,0,0,1.843-.574V22.472l-.56-.08c-.493-.011-.745-.091-.745-.241q0-.069.137-.069c.127,0,.39.012.561.023.3.034.5.046.539.046.366,0,1.42-.034,1.592-.056l.183-.012c.1,0,.172.046.172.114s-.115.138-.345.15l-.4.057c0,1.088,0,1.763-.01,2.038V24.5c0,.069,0,.069.137.286a.3.3,0,0,1,.023.091c0,.046-.058.08-.172.092a2.131,2.131,0,0,0-.824.183L91,25.357l-.5.265a4.341,4.341,0,0,1-2,.469,3.486,3.486,0,0,1-3.584-3.561,4.249,4.249,0,0,1,2.05-3.721,5.107,5.107,0,0,1,2.473-.619,5.378,5.378,0,0,1,2.152.446l.046-.3a2.158,2.158,0,0,0,.081-.367c.023-.262.068-.366.16-.366.068,0,.1.047.1.127,0,.114-.035.629-.081,1.213-.01.126-.01.561-.023,1.294l.012.251.01.379c0,.1-.034.16-.114.16-.1,0-.114-.011-.206-.824Z"/><path class="cls-1" d="M95.936,18.705c-.023.379-.023.527-.035.848v4c0,.9.012,1.179.069,1.992.962.136,1.1.183,1.1.285a.117.117,0,0,1-.126.114,1.009,1.009,0,0,1-.148-.023c-.1-.011-1.237-.057-1.65-.057a6.856,6.856,0,0,0-.961.046,4.254,4.254,0,0,1-.459.034c-.1,0-.171-.045-.171-.1,0-.114.034-.126.63-.194a3.808,3.808,0,0,0,.5-.1c.034-1.02.047-1.3.047-2.061V21.248c.01-.423.01-.791.01-.847,0-.2,0-.31-.079-1.7a6.815,6.815,0,0,1-.986-.194c-.08-.023-.126-.069-.126-.137s.034-.08.115-.08a2.6,2.6,0,0,1,.274.022c.332.034.893.058,1.557.058a11.183,11.183,0,0,0,1.283-.058.36.36,0,0,1,.1-.011c.091,0,.172.057.172.126,0,.1-.047.115-.836.218Z"/><path class="cls-1" d="M105.909,22.037a4.085,4.085,0,0,1-8.165.184,4.093,4.093,0,0,1,1.638-3.275,4.475,4.475,0,0,1,2.588-.756A3.7,3.7,0,0,1,105.909,22.037Zm-6.745.058c0,2.278,1.11,3.836,2.715,3.836a2.359,2.359,0,0,0,2.071-1.237,4.64,4.64,0,0,0,.573-2.542,4.849,4.849,0,0,0-.573-2.519,2.448,2.448,0,0,0-2.107-1.237C100.252,18.4,99.164,19.9,99.164,22.1Z"/><path class="cls-1" d="M111.953,20.263a1.171,1.171,0,0,1,.01.172c0,.137-.033.194-.091.194-.1,0-.137-.1-.137-.493-.011-.321-.172-.5-.778-.835a3.021,3.021,0,0,0-1.615-.458,2.524,2.524,0,0,0-1.775.572.944.944,0,0,0-.241.654,1.207,1.207,0,0,0,.321.79,3.981,3.981,0,0,0,2.188.537,2.649,2.649,0,0,1,2.027.848,2.265,2.265,0,0,1,.446,1.374,2.5,2.5,0,0,1-2.806,2.45,5.6,5.6,0,0,1-2.152-.436c-.023.092-.046.207-.068.345l-.046.251c-.011.264-.046.355-.127.355s-.114-.08-.114-.206l.012-.184a11.235,11.235,0,0,0,.046-1.283c0-.228-.023-.744-.058-1.51v-.058c0-.1.035-.161.092-.161.09,0,.137.127.148.4l.069.423.058.206a3.559,3.559,0,0,0,2.7,1.145c1.19,0,1.832-.4,1.832-1.133a1.218,1.218,0,0,0-.309-.778c-.194-.217-.56-.343-1.557-.515-.378-.07-.938-.16-1.649-.286a2.007,2.007,0,0,1-1.42-2.072,2.378,2.378,0,0,1,2.6-2.382,6.4,6.4,0,0,1,2.152.355,4.692,4.692,0,0,0,.137-.664c.023-.148.058-.228.127-.228s.1.057.1.16a1.752,1.752,0,0,1-.034.275c-.034.252-.1,1.477-.1,1.946Z"/><path class="cls-1" d="M55.84,42.148c.09-2.866.112-4.166.112-5.846,0-.627,0-.627-.067-6.384v-.939c-.023-.18-.023-.18-1.679-.427-.336-.067-.539-.2-.539-.4,0-.09.09-.135.224-.135,1.523.09,2.732.135,4.21.135.314,0,1.1-.045,2.061-.09.628-.045,1.187-.066,1.658-.066,3.024,0,4.95,1.455,4.95,3.763,0,2.62-2.554,4.5-6.116,4.5a21.132,21.132,0,0,1-2.464-.157v1.657c0,2.6,0,3.069.067,4.457,1.725.067,2.732.269,2.732.582,0,.112-.112.179-.292.179l-1.388-.135-2.15-.066L55.7,42.8l-1.164.09-.582.022c-.2,0-.292-.067-.292-.2s.134-.2.425-.246c.314-.045.582-.09.785-.135Zm2.307-9.989c0,.224,0,.56-.023,1.052-.023.448-.023.763-.023,1.053,0,1.008.023,1.321.158,1.388.089.023,1.187.134,1.567.134a5.757,5.757,0,0,0,2.958-.515,3.272,3.272,0,0,0,1.59-2.935,3.787,3.787,0,0,0-3.852-3.92,5.325,5.325,0,0,0-2.128.292c-.2.135-.313.493-.313,1.12Z"/><path class="cls-1" d="M70.593,32.063a8.239,8.239,0,0,0,1-.082,2.944,2.944,0,0,1,.345-.033c.164,0,.278.065.278.164,0,.147-.181.246-.541.278a8.392,8.392,0,0,0-1.047.2c-.017,1.734-.033,3.14-.033,3.959,0,3.4.1,4.236.541,5.005A2.5,2.5,0,0,0,73.458,42.8a3.227,3.227,0,0,0,2.912-1.457,6.476,6.476,0,0,0,.588-3.14,34.024,34.024,0,0,0-.408-5.676l-.328-.018c-.786-.049-1.26-.2-1.26-.409,0-.082.065-.131.213-.131a15.12,15.12,0,0,1,1.7.131h.278a7.842,7.842,0,0,0,1.588-.114.545.545,0,0,1,.164-.017c.18,0,.31.082.31.2,0,.146-.229.213-1.407.391-.246,2.586-.295,3.387-.425,5.809a6.165,6.165,0,0,1-.687,3.157,3.716,3.716,0,0,1-3.453,1.619,4.331,4.331,0,0,1-3.827-1.8,4.962,4.962,0,0,1-.475-2.649v-.377c0-3.976,0-4.254-.064-5.76-1.129-.13-1.67-.277-1.67-.458,0-.1.082-.163.213-.147.606.033.965.065,1.1.083a6.123,6.123,0,0,0,.966.032h1.111Z"/><path class="cls-1" d="M79.607,42.91c-.147,0-.245-.065-.245-.164,0-.081.032-.1.278-.147a10.615,10.615,0,0,1,1.292-.2,40.582,40.582,0,0,0,.916-7.1c.05-.508.1-1.015.131-1.521-.753-1.114-.9-1.26-1.457-1.343-.506-.081-.7-.163-.7-.31,0-.082.1-.147.246-.147a4.321,4.321,0,0,1,.523.05,5.922,5.922,0,0,0,.8.049,9.067,9.067,0,0,0,1.31-.1c.622,1.064,1.227,2.111,1.848,3.158.507.9,1.03,1.783,1.554,2.618l.492.85c.442-1.146.8-2,1.324-3.19l1.1-2.454.424-.982.753.05h.7a5.08,5.08,0,0,0,.851-.05h.212c.229,0,.361.05.361.147,0,.163-.263.262-.737.295a3.38,3.38,0,0,0-.737.13c.017.8.017,1.1.05,1.457.016.294.033.506.295,4.352.081,1.128.131,1.848.163,2.568l.131,1.456a8.194,8.194,0,0,1,1.408.228c.131.05.2.1.2.181,0,.065-.082.114-.213.114-.114,0-.506-.016-.9-.049-.342-.033-.769-.05-1.276-.05a17.187,17.187,0,0,0-1.783.083c-.228.016-.442.032-.573.032-.18,0-.295-.082-.295-.2,0-.082,0-.082.295-.132a1.629,1.629,0,0,0,.246-.048c.262-.05.262-.05.752-.132l.442-.1c-.328-4.809-.377-5.382-.638-8.425-.982,1.9-2.389,4.908-2.929,6.282-.049.164-.131.246-.213.246-.1,0-.114-.017-.262-.278a4.913,4.913,0,0,0-.262-.442c-.409-.687-.409-.687-1.162-2l-.67-1.113c-.459-.719-.9-1.455-1.325-2.241-.164,2.045-.213,3.158-.213,4.532a30.093,30.093,0,0,0,.2,3.5,6.006,6.006,0,0,1,1.587.261.172.172,0,0,1,.131.163c0,.083-.064.132-.179.132a1.909,1.909,0,0,1-.344-.049l-.606-.05-.948-.033c-.2-.016-.327-.016-.458-.016-.2,0-.2,0-1.08.065-.376.033-.376.033-.719.049Z"/><path class="cls-1" d="M102.558,38.182c.917,2.372.95,2.471,1.752,4.188,1.047.1,1.554.228,1.554.425,0,.082-.082.114-.245.114-.065,0-.065,0-.7-.049-.2-.017-.36-.017-.588-.017l-3.682.1c-.213,0-.31-.065-.31-.181,0-.1.1-.147.327-.18.213-.032.409-.065.606-.1a8.66,8.66,0,0,0,1.046-.164c-.425-1.325-.506-1.538-1.046-2.9h-3.91c-.41,1.309-.459,1.521-.786,2.9,1.815.278,1.93.311,1.93.491,0,.066-.049.1-.131.1h-.082a1.641,1.641,0,0,1-.442-.032c-.195-.017-.751-.05-1.684-.066H95.95a14.082,14.082,0,0,0-1.784.1,1,1,0,0,1-.2.017c-.147,0-.228-.049-.228-.164,0-.131.081-.18.295-.212.506-.066.654-.1,1.16-.2a67.932,67.932,0,0,0,4.711-10.535c.033-.164.083-.229.164-.229.1,0,.164.1.2.344a30.9,30.9,0,0,0,1.472,4.188Zm-1.438.915-1.8-4.466c-.524,1.112-.588,1.243-1,2.274L97.455,39.1Z"/><path class="cls-1" d="M108.007,42.354a5.745,5.745,0,0,1-.033-.687c0-.082.017-.377.033-.769l.016-2.029V36.563c0-1.278-.016-1.817-.1-4.01a4.956,4.956,0,0,1-.573-.081c-.67-.065-1-.164-1-.327,0-.082.065-.132.2-.132.114,0,.506.033,1.26.1l.949.017a16.479,16.479,0,0,0,1.816-.065,4.35,4.35,0,0,1,.508-.05c.163,0,.261.066.261.164,0,.147-.474.262-1.6.393l-.049,1.652v3.011h5.5c0-1.915,0-2.143-.05-4.7-.506-.082-.7-.1-.9-.114-.475-.049-.72-.132-.72-.295,0-.1.065-.147.2-.147.049,0,.164.017.278.032.278.05,1.6.115,2.307.115.442,0,1.194-.049,1.669-.1A3.2,3.2,0,0,1,118.3,32c.131,0,.212.049.212.131,0,.163-.343.295-.915.327l-.72.082c0,.458,0,.818-.017.982l-.017,2.29.033,3.485v.851c-.017.491-.017.883-.017.949,0,.311.017.655.033,1.244,1.521.245,1.635.277,1.635.441,0,.082-.082.131-.181.131h-.1c-.6-.065-1.963-.114-3.009-.114-.132,0-.9.049-1.555.114a.2.2,0,0,1-.2-.179c0-.082.147-.115.492-.164l.278-.049a6.018,6.018,0,0,1,.9-.179c.066-1.278.083-2.308.083-3.7,0-.327,0-.54-.033-1.014h-5.514v1.685c0,1.015.016,1.816.032,3.141l.278.016a7.521,7.521,0,0,1,1.211.164c.131.033.2.082.2.164s-.065.114-.18.114l-.6-.032c-.2-.017-1.8-.066-2.03-.066-.114,0-.114,0-.768.05-.295.017-.295.017-1.064.049a1.248,1.248,0,0,1-.213.017c-.164,0-.245-.049-.245-.147,0-.131.376-.228,1.243-.343Z"/><path class="cls-1" d="M122.155,32.063a8.255,8.255,0,0,0,1-.082,2.921,2.921,0,0,1,.345-.033c.163,0,.278.065.278.164,0,.147-.181.246-.541.278a8.384,8.384,0,0,0-1.047.2c-.017,1.734-.033,3.14-.033,3.959,0,3.4.1,4.236.54,5.005A2.5,2.5,0,0,0,125.02,42.8a3.228,3.228,0,0,0,2.912-1.457,6.476,6.476,0,0,0,.589-3.14,33.891,33.891,0,0,0-.41-5.676l-.327-.018c-.786-.049-1.26-.2-1.26-.409,0-.082.065-.131.212-.131a15.116,15.116,0,0,1,1.7.131h.278a7.842,7.842,0,0,0,1.588-.114.542.542,0,0,1,.163-.017c.18,0,.31.082.31.2,0,.146-.228.213-1.406.391-.246,2.586-.295,3.387-.425,5.809a6.166,6.166,0,0,1-.687,3.157,3.717,3.717,0,0,1-3.453,1.619,4.33,4.33,0,0,1-3.827-1.8,4.952,4.952,0,0,1-.475-2.649v-.377c0-3.976,0-4.254-.065-5.76-1.128-.13-1.669-.277-1.669-.458,0-.1.082-.163.213-.147.606.033.965.065,1.1.083a6.115,6.115,0,0,0,.965.032h1.112Z"/><path class="cls-1" d="M143.776,31.105c0,.18-.066.27-.2.27-.179,0-.291-.27-.291-.694a8.412,8.412,0,0,0-.09-1.053c-1.388-.649-3.763-1.008-7.28-1.053-.089,1.726-.112,2.465-.112,4.122,0,.515,0,1.434.023,2.554a25.975,25.975,0,0,0,6.764-.829l.112-.65c.046-.582.158-.828.359-.828a.164.164,0,0,1,.179.179.345.345,0,0,1-.022.135c-.023.246-.113,2.038-.113,2.508a7.484,7.484,0,0,0,.046,1.1c.023.335.045.671.045.739,0,.246-.067.358-.2.358s-.179-.066-.224-.292a7.787,7.787,0,0,1-.224-1.522,33.114,33.114,0,0,0-6.72-.516c-.023,2.263-.023,3.472-.023,3.606,0,.717.023,1.657.069,3.113a21.862,21.862,0,0,0,7.48-1.074l.112-1.053c.045-.47.157-.717.313-.717.135,0,.224.112.224.313v.292l-.045,1.142.022,2.487c0,.157-.066.246-.2.246-.112,0-.179-.089-.224-.313l-.134-.56a29.894,29.894,0,0,0-4.391-.291c-2.1-.045-2.553-.045-2.866-.045-.112,0-.112,0-1.075.045-.269,0-1.12.022-2.509.067-.447.022-.783.022-.851.022-.291,0-.448-.089-.448-.246,0-.135.135-.2.427-.224a6.52,6.52,0,0,0,1.725-.292c.111-1.881.134-2.889.134-3.9,0-4.928-.045-8.177-.112-9.475-.358-.067-.716-.135-1.12-.2a4.288,4.288,0,0,0-.559-.089c-.381-.067-.583-.178-.583-.335,0-.09.067-.18.135-.18l.335.045.539-.022a2.634,2.634,0,0,1,.38.066c.56.112.56.112,4.3.112h1.748a28.879,28.879,0,0,0,4.592-.313c.179-.9.223-1.03.358-1.03s.224.157.224.358c0,.046,0,.046-.089,1.21v.538c0,.694.022,1.344.066,1.971Z"/><path class="cls-1" d="M25.384,1.306c.053-.043.146-.024.283.141s.557.595.557.595a3.618,3.618,0,0,0-.405.669,2.708,2.708,0,0,0-.257.676s-.088-.061.017-.651.182-.71.112-.876a.816.816,0,0,0-.254-.355C25.34,1.429,25.334,1.347,25.384,1.306Z"/><path class="cls-1" d="M29.984,1.875a3.524,3.524,0,0,1,.546.7,4.475,4.475,0,0,0,.3.5,1.387,1.387,0,0,0-.1-.567c-.13-.452-.4-.648-.2-.96a4.769,4.769,0,0,1,.356-.51c.053-.055-.022-.137-.125-.028-.06.063-.317.276-.518.5A2.419,2.419,0,0,0,29.984,1.875Z"/><path class="cls-1" d="M18.544,5.761a2.947,2.947,0,0,1,.375-.586,1.4,1.4,0,0,1,.374-.371,7.672,7.672,0,0,0-.766-.715c-.171-.094-.162,0-.1.07s.382.423.361.64-.166.338-.219.493a.692.692,0,0,0-.042.485Z"/><path class="cls-1" d="M27.013,4.435a3.961,3.961,0,0,1-.057-.715c-.008-.146-.2-.031-.193-.005s.027.523.027.523l-1.054-.008a.172.172,0,0,0,.015.115c.033.068.478.736.478.736l.717-.135s.046.1.113.228.126.077.126.077V5.1A3.74,3.74,0,0,0,27.013,4.435Zm-.357.4a2.616,2.616,0,0,1-.328.037l-.293-.423h.355l.218.376.131-.4.119.008.1.366S26.8,4.809,26.656,4.834Z"/><path class="cls-1" d="M29,4.145s.1-.425.12-.523-.169-.081-.178-.026-.077.394-.167.68a5.181,5.181,0,0,0-.226.694c0,.12-.012.057-.012.173s.083.149.114.092a2.3,2.3,0,0,0,.091-.223l.766.026.479-.637.231-.011,0-.275Zm.44.722s-.6-.083-.617-.088a2.8,2.8,0,0,1,.139-.395l.127,0,.148.418.246-.432h.268Z"/><path class="cls-1" d="M23.4,4.168a.88.88,0,0,1-.114.419.682.682,0,0,0-.064.66,1.058,1.058,0,0,1,.117.43c-.007.025-.035.171-.035.171s-.094-.225-.281-.575a1.965,1.965,0,0,0-.406-.533Z"/><path class="cls-1" d="M20.377,6.592c-.084-.417-.095-.465-.095-.465L20.07,6.2l.113.561h-1.1l-.011.136h.312l.39.622H20.5a1.955,1.955,0,0,0,.113.224c.088.147.155-.152.155-.152A4.7,4.7,0,0,1,20.377,6.592Zm-.527.768L19.57,6.91h.209l.265.425.144-.43.209.454Z"/><path class="cls-1" d="M22.243,6.729l.032-.373-.241-.006s.006.177,0,.373a2.012,2.012,0,0,1-.216.911c-.119.257.061.27.106.208s.169-.351.169-.351l.784,0,.406-.768Zm.582.576-.715.028.144-.462H22.4l.18.43.215-.43h.275Z"/><path class="cls-1" d="M45.761,29.917s.015-.976-.147-3.783a21.521,21.521,0,0,0-.635-4.4l-1.848-1.7s-.325-.549-1.2-2.1c-.393-.7-1.165-2.051-1.955-3.234-.972-1.447-1.993-2.755-2.73-3.737a7.81,7.81,0,0,0-1.76-1.794,11.706,11.706,0,0,0-1.269-.676l-1.76-2.465A3.811,3.811,0,0,0,32.4,4.844a12,12,0,0,0-.4-1.552,2.911,2.911,0,0,0,.144-2.245c-.265-.987-.811-1.152-1.242-1a7.161,7.161,0,0,0-1.3.826,3.126,3.126,0,0,0-1-.294,3.987,3.987,0,0,0-1.832.221A2.5,2.5,0,0,0,24.848.308a2.629,2.629,0,0,0-.708,2.053,3.188,3.188,0,0,0,.144.985.974.974,0,0,0-.9-.294,5.287,5.287,0,0,0-1.27.518,3.353,3.353,0,0,0-1.138-.253,2.72,2.72,0,0,0-1.316.309,1.864,1.864,0,0,0-1.6-.619c-.115.027-.63.162-.872,1.093a2.6,2.6,0,0,0,.312,1.95l-.444,2.024.383.458-1.92,2.511s-.275-.017-.722.4a25.391,25.391,0,0,0-2.263,2.878A39.406,39.406,0,0,0,8.95,20.28c-.223.444-.327.426-1.021,1.033a3.12,3.12,0,0,0-.815.9,11.915,11.915,0,0,0-.634,3.207,30.462,30.462,0,0,0-.132,4.048s-.578.3-.578,1.433c0,1.582,2.04,1.728,2.04,1.728l10.033-1.152s-1.814-.415,7.85-.415a74.079,74.079,0,0,1,9.249.654l9.978,1.45a1.887,1.887,0,0,0,1.462-1.744A1.691,1.691,0,0,0,45.761,29.917Zm-25,.169a12.428,12.428,0,0,0-2.5-.022,40.173,40.173,0,0,0-4.054.559,37.034,37.034,0,0,1-5.172.4c-.451,0-2.006-.071-2.006-1.3,0-.706.578-.651.578-1.457a35.192,35.192,0,0,1,.2-3.728,13.767,13.767,0,0,1,.451-2.671,8.576,8.576,0,0,1,1.583-1.44,26.9,26.9,0,0,1,2.64-4.731,19.8,19.8,0,0,1,3.136-4.063c.267-.214.511-.179.825-.634.333-.483.96-1.321,1.166-1.588s.428-.517.428-.517l1.088.919s.364.1.122-.143a8.653,8.653,0,0,1-1.346-1.6,3.357,3.357,0,0,1,.153-1.293c.116-.338.287-.775.287-.775a1.329,1.329,0,0,1-.528-1.211c0-.572.278-1.054.482-1.054a1.51,1.51,0,0,1,.9.5c.274.3.24.437.24.437A4.213,4.213,0,0,1,20.8,4.213a3.507,3.507,0,0,1,1.436.2,2.379,2.379,0,0,1,1-.553c.308-.081.384-.009.475.232a4.535,4.535,0,0,1,.2,1.1,1.762,1.762,0,0,1-.471,1.159,4.9,4.9,0,0,1,.187,1.4,1.631,1.631,0,0,1-.115.761,2.161,2.161,0,0,1-.59.709,1.633,1.633,0,0,1-.152.812,3.1,3.1,0,0,1-.346.364,1.391,1.391,0,0,1-.332.554,2.224,2.224,0,0,1-.9.169.73.73,0,0,1-.731-.231c-.178-.224-.375-.5-.375-.5s-.214-.027-.078.2.56.855.56.855,1.187.036,1.416.036a.531.531,0,0,0,.474-.232c.132-.161.418-.455.418-.455v5.561l-2.5,4.813.123-1.122s1.124-2.255,1.187-2.362a3.115,3.115,0,0,0-.091-1.123,9.109,9.109,0,0,0-.944-2.389,5.517,5.517,0,0,0-.721-1.015l-.171.141A7.743,7.743,0,0,1,20.815,15.1a7.433,7.433,0,0,1,.418,2.47L19.9,19.8l-.373,3.522s-.382,3.6-.393,3.743-.046.357.151.472,1.273.8,1.273.8l-2,.089a1.262,1.262,0,0,0-.854-.561c-.52-.027-1.115-.081-1.115-.081l-.153-6-1.157-1.935a1.941,1.941,0,0,1,.061-.516c.082-.448.409-1.6.562-2.043s.223-.6.223-.6H15.92a10.958,10.958,0,0,0-.748,1.918,12.8,12.8,0,0,0-.358,1.281,3.435,3.435,0,0,0,.286.69c.158.3.359.648.525.922l-.753,1.128c-.162-.215-.36-.467-.578-.719-.628-.723-1.386-1.448-1.386-1.448s-1.174-.242-1.327-.259-.241.208-.026.269a4.5,4.5,0,0,1,1.245.462,12.657,12.657,0,0,1,1.09,1.186c.348.422.7.909.807,1.047l.028.04v1.971s-.528.8-1.071,1.541-1.113,1.435-1.113,1.435l.017.036s3.626.159,4.262.167.491.011.634.011.188.153,0,.16-3.763.364-4.858.437A13.492,13.492,0,0,1,9.352,28.6a.343.343,0,0,0-.317.058c-.071.079-.1.246.1.388a8.582,8.582,0,0,0,2.929.435c.722,0,4.771-.392,6.41-.534a14.65,14.65,0,0,1,1.849-.088h.143c1.089,0,2.175.24,2.1.8S21.58,30.214,20.76,30.086Zm2.416-.471a1.109,1.109,0,0,0-.322-.605,2.366,2.366,0,0,0-1.2-.553.774.774,0,0,0-.2-.25c-.169-.154-1.337-.8-1.5-.892a.341.341,0,0,1-.169-.347c0-.123.455-4.368.455-4.368l1.6-2.512.079-.081s-.143.82-.217,1.87c-.093,1.3-.12,2.935-.094,3.574.079,1.936.115,2.327.258,2.54s.748.33,1.339.616a1.252,1.252,0,0,1,.621,1.006ZM24.4,29.42c0-.27-.037-1.044-.474-1.3-.252-.15-1.435-.665-1.435-.665s-.079.109-.079-1.609a45.019,45.019,0,0,1,.651-7.462l.649-1.521-.117-7.225a3.057,3.057,0,0,0,.7-.973,3.367,3.367,0,0,0,.158-1.006,11.7,11.7,0,0,0-.176-1.343,3.979,3.979,0,0,0,.382-1.583,3.247,3.247,0,0,0-.086-.8,1.086,1.086,0,0,0,.1.125l-.03,2.29.578.9s-.03,4.108-.03,4.285a16.639,16.639,0,0,0,.8,2.586,30.36,30.36,0,0,0,1.743,4.062s.012.775-.044,1.772c-.07,1.24-.222,2.842-.355,3.931a8.579,8.579,0,0,1-.984,3.412c-.252.4-1.258.709-1.613.9C24.443,28.36,24.4,29.146,24.4,29.42Zm2.592.216h-.677s-.041-.114.1-.449a1.869,1.869,0,0,1,.609-.643l0-.075a1.967,1.967,0,0,0-.561.082,1.247,1.247,0,0,0-.469.313,5.454,5.454,0,0,0-.606.762h-.523a1.532,1.532,0,0,1,.191-.594,1,1,0,0,1,.4-.48,6.538,6.538,0,0,1,1.207-.533c.3-.077.273-.087.362-.251a2.4,2.4,0,0,0,.152-.413s.666-2.786.98-4.623a22.85,22.85,0,0,0,.318-3.515c0-.108.044-.183.081-.116s1.677,2.461,1.677,2.461l.22,2.31-1.174,4.235a.358.358,0,0,0-.184.09.449.449,0,0,0-.157.224c.014,0,0,0,0,0v0l-.205.047a2.739,2.739,0,0,0-1.478.654A1.141,1.141,0,0,0,26.99,29.636ZM42.9,31.482a33.957,33.957,0,0,1-4.391-.469,70,70,0,0,0-6.962-.8c-1.36,0-2.7.152-2.939.152s-1.024-.012-1.047-.534c-.012-.239.135-.514.589-.652a19.427,19.427,0,0,1,4.924-.36c2.44,0,5.851.807,7.528.807a6.552,6.552,0,0,0,1.773-.251c.3-.1.31-.332.241-.456a.344.344,0,0,0-.391-.12,5.7,5.7,0,0,1-1.678.25,34.989,34.989,0,0,1-4.2-.534,24.994,24.994,0,0,0-3.378-.316l.153-.153,5.578.076a8.472,8.472,0,0,1-.938-1.155c-.466-.65-1.373-1.94-1.459-2.123a8.049,8.049,0,0,1-.13-1.961,18.63,18.63,0,0,1,2.08-2.68,4.122,4.122,0,0,1,1.33-.555c.283-.065.522-.14.467-.273s-.229-.1-.763-.01a2.914,2.914,0,0,0-1.176.37,14.545,14.545,0,0,0-1.4,1.475c-.176.207-.34.407-.489.593l-1.042-1.042.994-1.779s-.142-.49-.447-1.525a19.176,19.176,0,0,0-.85-2.211l-.186.087a9.627,9.627,0,0,1,.459,1.362c.227.86.467,2.2.467,2.2a7.783,7.783,0,0,1-.609,1.144c-.4.632-.718,1.025-.718,1.025l-.055,6.481s-.829-.043-.992-.043-.4-.011-.469.066-.643.632-.643.632l-1.97.064s.719-.426.98-.566a.493.493,0,0,0,.284-.543c-.032-.186-1-8.378-1-8.378A19.954,19.954,0,0,1,28.95,16.09a8.174,8.174,0,0,1,1.709-4.553s-.006-.026-.186-.13a9.245,9.245,0,0,0-1.719,3.17,6.822,6.822,0,0,0-.242,1.678s.382.947.764,1.7a11.1,11.1,0,0,0,.7,1.208l.1.948-.062.02s-.646-.936-1.268-2.014c-.492-.848-.935-1.791-1.234-2.406s-.845-2.022-1.124-2.853a9.556,9.556,0,0,1-.424-1.5V8.041l.973,1.233h1.785l.676-1-.153-.153-.39.544a.524.524,0,0,1-.451.266c-.185,0-1.16-.009-1.16-.009s-.155-.031-.328-.411-.431-.481-.543-.626a1.48,1.48,0,0,1-.113-.613L26.074,7.1l-.668-1.016V3.643a1.423,1.423,0,0,1-.379-.624,2.569,2.569,0,0,1,.022-1.7.4.4,0,0,1,.524-.3c1.036.3,1.084.679,1.084.679a4.29,4.29,0,0,1,1.395-.339,4.561,4.561,0,0,1,1.476.39s.155-.154.594-.574a1.28,1.28,0,0,1,.995-.411c.155.094.38.493.38,1.405a1.339,1.339,0,0,1-.476,1.195,5.166,5.166,0,0,1,.415,1.975A3.311,3.311,0,0,1,30.81,6.63a2.233,2.233,0,0,1-.783.8l.131.187,1.6-1.336s.778,1.009,1.277,1.729a5.468,5.468,0,0,1,.45.755,3.1,3.1,0,0,1,.713.319,4.92,4.92,0,0,1,1.03.713,36.632,36.632,0,0,1,2.921,3.66,56.02,56.02,0,0,1,3.7,6.275,12.4,12.4,0,0,1,1.047.847,6.177,6.177,0,0,1,.639.708,19.24,19.24,0,0,1,.509,3.386A42.154,42.154,0,0,1,44.211,29a1.14,1.14,0,0,1,.654,1.144C44.865,31.307,43.633,31.482,42.9,31.482Z"/><polygon class="cls-1" points="20.511 8.508 20.529 8.765 21.26 9.06 21.255 9.452 20.436 9.956 20.43 10.15 20.623 10.15 20.809 10.001 21.991 10.001 22.119 10.155 22.335 10.155 22.335 9.951 21.5 9.446 21.5 9.051 22.144 8.716 22.138 8.436 20.511 8.508"/><path class="cls-1" d="M26.762,7.9h.217V7.8h1.5l.093.146h.1l.127-.129-.031-.12-.852-.471V6.8l.763-.429V6.144H26.954v.243l.628.361v.47l-.73.424a.25.25,0,0,0-.068.1A.485.485,0,0,0,26.762,7.9Z"/><path class="cls-2" d="M.069,34.878s3.348,8.7,3.414,8.936a.272.272,0,0,0,.319.181c28.555-2.216,43.22-.174,44.686.007a.268.268,0,0,0,.327-.195s1.868-6.637,3.065-9.341a.389.389,0,0,0-.2-.513c-.08-.035-24.753-10.87-51.414.271C.022,34.328-.079,34.481.069,34.878Zm47.84,7.734a.3.3,0,0,1-.385.243C29.514,40.124,6.6,42.644,4.5,42.889a.174.174,0,0,1-.2-.111c-.316-1.069-2.432-6.443-2.847-7.411a.122.122,0,0,1,.075-.166l3.8-1.307c18.8-6.187,42.153.113,44.622.884.143.045.189.13.14.231A45.769,45.769,0,0,0,47.909,42.612Z"/><path class="cls-1" d="M9.324,36.121l.373-.064.1-.019a.151.151,0,0,1,.089.008.115.115,0,0,1,.066.065c.016.032.032.064.051.1.031.054.06.109.086.165s.058.113.091.17c.093.179.189.359.28.538s.187.36.281.54c.024.048.05.1.077.147s.05.1.076.148l.041.079a.383.383,0,0,0,.05.067.024.024,0,0,0,.015.01s.009,0,.018.009a.067.067,0,0,0,.059-.056l.017-.087c.012-.068.021-.138.028-.209s.016-.143.03-.217c.032-.214.062-.428.089-.638s.059-.426.091-.64c.008-.052.012-.1.021-.154s.013-.1.019-.153a.325.325,0,0,0,.017-.078.129.129,0,0,1,.037-.069.135.135,0,0,1,.073-.036l.089-.016.31-.055.091-.014a.118.118,0,0,1,.077,0c.035.009.048.037.048.079s-.006.079-.009.109c-.017.075-.028.153-.039.231s-.021.158-.032.236a.2.2,0,0,0-.012.059.3.3,0,0,1-.006.058c-.013.067-.024.138-.032.209s-.019.142-.031.215c-.039.263-.079.527-.118.791l-.118.791a1.826,1.826,0,0,0-.037.227c-.009.075-.019.151-.032.225-.008.046-.017.088-.024.125a.14.14,0,0,1-.082.088.344.344,0,0,1-.079.021l-.09.013-.332.058c-.032,0-.068.013-.106.021a.179.179,0,0,1-.1,0,.142.142,0,0,1-.082-.073c-.017-.037-.036-.074-.055-.108-.031-.06-.064-.123-.1-.184s-.062-.125-.095-.185c-.1-.181-.2-.364-.3-.551s-.195-.372-.3-.555c-.042-.084-.086-.168-.126-.251s-.084-.164-.129-.245a.42.42,0,0,1-.042-.078.656.656,0,0,0-.042-.078c-.044-.082-.086-.161-.125-.242s-.085-.16-.129-.241c-.014-.026-.023-.052-.038-.076s-.027-.05-.042-.076-.01-.029-.013-.045a.109.109,0,0,1,0-.044.079.079,0,0,1,.053-.051.039.039,0,0,1,.021-.006A.028.028,0,0,0,9.324,36.121Z"/><path class="cls-1" d="M12.628,35.579l.4-.057c.036,0,.066-.009.1-.011a.086.086,0,0,1,.075.025.15.15,0,0,1,.037.079c.007.034.012.071.019.111l.058.4.226,1.605.107.759c.006.04.014.085.021.134a.206.206,0,0,1,0,.113.132.132,0,0,1-.075.063.218.218,0,0,1-.069.015.534.534,0,0,0-.075.005l-.273.038a.925.925,0,0,1-.094.009A.119.119,0,0,1,13,38.853a.113.113,0,0,1-.039-.065.974.974,0,0,1-.016-.1l-.058-.4L12.647,36.6l-.1-.675c-.006-.044-.015-.093-.023-.153a.235.235,0,0,1,0-.128.149.149,0,0,1,.053-.055l.027-.005A.053.053,0,0,1,12.628,35.579Z"/><path class="cls-1" d="M17.1,38.283a.06.06,0,0,1,0,.051.067.067,0,0,1-.022.035A.1.1,0,0,1,17,38.4c-.032,0-.066,0-.1.008l-.255.028c-.05,0-.095.008-.133.008a.1.1,0,0,1-.088-.045.291.291,0,0,1-.057-.143.968.968,0,0,0-.044-.164.133.133,0,0,0-.006-.035.146.146,0,0,1,0-.029.436.436,0,0,1-.028-.118.965.965,0,0,0-.022-.114.208.208,0,0,1-.011-.04c-.007-.033-.016-.067-.026-.1s-.02-.07-.032-.1a.88.88,0,0,0-.11-.18.3.3,0,0,0-.156-.109.279.279,0,0,0-.048-.01.219.219,0,0,1-.053-.008.558.558,0,0,0-.2-.006l-.216.023-.379.042c-.024.009-.046.015-.065.02a.079.079,0,0,0-.044.032.222.222,0,0,0-.016.148c.01.065.019.123.022.176l.068.594c0,.026,0,.05.006.078s0,.051,0,.076.006.047.008.068a.139.139,0,0,1,0,.054.079.079,0,0,1-.05.062.169.169,0,0,1-.055.016l-.069.007-.207.023c-.052,0-.1.012-.158.019a.207.207,0,0,1-.13-.016.1.1,0,0,1-.047-.082c0-.042-.008-.083-.012-.124l-.309-2.824c0-.033-.008-.069-.014-.106a.147.147,0,0,1,.01-.091.145.145,0,0,1,.066-.053.025.025,0,0,1,.02,0,.029.029,0,0,0,.02-.005l1.58-.172c.049-.006.1-.01.142-.013a.665.665,0,0,1,.129,0,.146.146,0,0,0,.049,0,.152.152,0,0,1,.051,0l.067.012a.426.426,0,0,1,.066.017.943.943,0,0,1,.227.1.74.74,0,0,1,.183.155.26.26,0,0,1,.035.044.258.258,0,0,0,.035.046.521.521,0,0,1,.07.129c.019.045.037.095.06.149a.108.108,0,0,1,.007.037.058.058,0,0,0,.01.036l0,.043a.286.286,0,0,1,.015.09.51.51,0,0,1,0,.087.253.253,0,0,0,0,.068.324.324,0,0,1,0,.063c-.01.048-.021.095-.033.139a.488.488,0,0,1-.047.124.182.182,0,0,1-.019.032.161.161,0,0,0-.019.033c-.01.014-.017.026-.027.041a.352.352,0,0,1-.03.036c-.018.017-.036.034-.051.051a.555.555,0,0,1-.056.054c-.011.011-.023.022-.034.033a.109.109,0,0,0-.023.044.04.04,0,0,0,.015.044.232.232,0,0,0,.036.025c.032.022.067.042.1.065a.308.308,0,0,1,.088.078.757.757,0,0,1,.1.153,1.424,1.424,0,0,1,.082.184.369.369,0,0,1,.022.087.393.393,0,0,0,.021.087.52.52,0,0,0,.008.052c0,.018.006.036.009.053a.181.181,0,0,1,.006.04.2.2,0,0,0,.006.044.107.107,0,0,1,.007.038.155.155,0,0,0,.006.041.665.665,0,0,1,.023.1.463.463,0,0,0,.019.1l.023.083c.008.027.019.054.026.08Zm-1-2.011a.374.374,0,0,0-.012-.126.63.63,0,0,0-.027-.11A.062.062,0,0,1,16.047,36a.045.045,0,0,0-.012-.025.373.373,0,0,0-.228-.187.5.5,0,0,0-.187-.022c-.066,0-.138.01-.213.019l-.539.058c-.006.007-.011.01-.017.01a.034.034,0,0,0-.019,0,.117.117,0,0,0-.07.053.182.182,0,0,0-.01.1c.006.038.01.077.015.114l.046.432a1.026,1.026,0,0,1,.012.112.169.169,0,0,0,.033.085.1.1,0,0,0,.064.032.935.935,0,0,0,.1,0,.585.585,0,0,0,.106-.01c.036-.006.07-.009.1-.012l.273-.03c.022,0,.044,0,.07-.006a.161.161,0,0,0,.064-.013l.061-.007a.264.264,0,0,1,.07-.018.34.34,0,0,0,.068-.016.626.626,0,0,0,.131-.075.33.33,0,0,0,.125-.207C16.09,36.355,16.1,36.316,16.1,36.272Z"/><path class="cls-1" d="M19.056,34.909l.476-.033c.041,0,.079-.006.118-.006a.187.187,0,0,1,.1.017.068.068,0,0,1,.024.03.177.177,0,0,1,.015.043l0,.023c0,.012,0,.026.007.041s0,.032,0,.048l.012.182a.39.39,0,0,0,.008.062.159.159,0,0,1,0,.058.1.1,0,0,1-.088.091c-.046.007-.1.013-.167.018l-.476.034a1.488,1.488,0,0,0-.162.019.1.1,0,0,0-.084.092.119.119,0,0,0,0,.042.075.075,0,0,1,0,.043.324.324,0,0,0,0,.063.452.452,0,0,1,.006.062l.03.415.1,1.342.031.439a1.017,1.017,0,0,1,0,.129.094.094,0,0,1-.05.081.287.287,0,0,1-.076.015l-.079,0-.319.022c-.032,0-.062,0-.093,0a.093.093,0,0,1-.07-.029.175.175,0,0,1-.032-.094c0-.038,0-.078-.007-.119l-.035-.465-.091-1.3-.03-.4c0-.021,0-.043,0-.067a.179.179,0,0,0-.01-.063.091.091,0,0,1,0-.042.054.054,0,0,0-.006-.037A.108.108,0,0,0,18,35.6c-.049,0-.1,0-.172,0l-.431.032c-.035,0-.073.006-.115.012a.539.539,0,0,1-.1,0,.107.107,0,0,1-.079-.1.635.635,0,0,1-.006-.073l-.018-.228a.576.576,0,0,1,0-.108.094.094,0,0,1,.04-.072.158.158,0,0,1,.048-.023l.023,0Z"/><path class="cls-1" d="M20.377,34.823l.4-.014a.873.873,0,0,1,.1,0,.1.1,0,0,1,.073.03.2.2,0,0,1,.03.1c0,.037,0,.076.006.118l.017.471.033.962.006.164v.039a.086.086,0,0,0,0,.038l0,.076v.089a.33.33,0,0,0,.011.083.1.1,0,0,0,.008.051c0,.035.012.069.018.1a.458.458,0,0,0,.03.1.621.621,0,0,0,.138.2.578.578,0,0,0,.223.117.509.509,0,0,0,.075.012.483.483,0,0,1,.074.012.113.113,0,0,0,.044,0,.087.087,0,0,1,.04,0,.2.2,0,0,0,.062,0,.356.356,0,0,0,.056-.009l.069,0,.075-.017a.359.359,0,0,0,.068-.016.468.468,0,0,0,.1-.036.517.517,0,0,0,.144-.105.472.472,0,0,0,.1-.146.853.853,0,0,0,.05-.29c0-.111,0-.226,0-.344l-.032-.929-.022-.625c0-.044,0-.093-.008-.146a.187.187,0,0,1,.022-.116.111.111,0,0,1,.063-.038.593.593,0,0,1,.094-.01l.3-.011.07,0a.2.2,0,0,1,.07,0,.116.116,0,0,1,.084.044.183.183,0,0,1,.026.105v.123l.022.626.034.944c0,.117,0,.233.008.344a1.218,1.218,0,0,1-.032.3,1.647,1.647,0,0,1-.152.387.9.9,0,0,1-.255.283,1.3,1.3,0,0,1-.336.181.7.7,0,0,1-.085.025l-.086.022a.2.2,0,0,1-.052.011.17.17,0,0,0-.055.01c-.038.008-.078.014-.126.02s-.091.007-.133.008a2.135,2.135,0,0,1-.76-.084.985.985,0,0,1-.5-.353.964.964,0,0,1-.108-.172,1.819,1.819,0,0,1-.078-.2.118.118,0,0,1-.012-.04.086.086,0,0,0-.012-.04A1.074,1.074,0,0,1,20.325,37c0-.109-.008-.218-.011-.327l-.044-1.3-.011-.326c0-.031,0-.061-.006-.092a.16.16,0,0,1,.012-.072.148.148,0,0,1,.073-.05h.019A.042.042,0,0,0,20.377,34.823Z"/><path class="cls-1" d="M24.913,34.658a1.319,1.319,0,0,1,1.247.539.715.715,0,0,1,.073.153c.017.054.033.111.05.174a.3.3,0,0,1,.006.087.115.115,0,0,1-.021.072.106.106,0,0,1-.065.035.567.567,0,0,1-.094.007H25.73a.214.214,0,0,1-.07-.01.113.113,0,0,1-.07-.075.636.636,0,0,0-.037-.1.533.533,0,0,0-.051-.1.283.283,0,0,0-.07-.08,1.23,1.23,0,0,0-.126-.08.791.791,0,0,0-.139-.04A1.326,1.326,0,0,0,25,35.218a1.21,1.21,0,0,0-.171,0,.524.524,0,0,0-.15.037.5.5,0,0,0-.167.11.391.391,0,0,0-.082.188.231.231,0,0,0,0,.073.214.214,0,0,0,.015.064.263.263,0,0,0,.1.138,1.459,1.459,0,0,0,.163.077.5.5,0,0,0,.105.035,1,1,0,0,1,.108.031c.085.027.171.052.26.072s.178.044.263.068a.158.158,0,0,0,.047.01.132.132,0,0,1,.048.009c.061.023.126.042.192.061a.7.7,0,0,1,.181.079,1.659,1.659,0,0,1,.216.16.838.838,0,0,1,.169.206.359.359,0,0,1,.041.084.93.93,0,0,0,.035.094.057.057,0,0,1,0,.024.035.035,0,0,0,.006.023.727.727,0,0,1,.017.187.058.058,0,0,1,0,.046v.085c-.006.035-.012.066-.016.1a.577.577,0,0,1-.024.094,1.223,1.223,0,0,1-.059.154.747.747,0,0,1-.081.135.2.2,0,0,1-.035.039.153.153,0,0,0-.033.038.567.567,0,0,1-.051.056c-.019.016-.039.032-.062.049s-.033.025-.048.038l-.055.037a.871.871,0,0,1-.167.083c-.057.022-.117.045-.18.067a.656.656,0,0,1-.135.03,1.372,1.372,0,0,0-.142.02.153.153,0,0,1-.062.007.155.155,0,0,0-.058.007h-.039l-.026,0a.051.051,0,0,0-.026,0,.4.4,0,0,1-.078.006.439.439,0,0,1-.08-.006H24.9a.271.271,0,0,0-.07-.008.149.149,0,0,1-.062-.006l-.043,0-.044-.007a.916.916,0,0,0-.116-.024.538.538,0,0,1-.111-.028,1.63,1.63,0,0,1-.4-.19,1.01,1.01,0,0,1-.289-.3.906.906,0,0,1-.114-.267.218.218,0,0,1-.014-.056.215.215,0,0,0-.01-.061.518.518,0,0,1-.014-.092.1.1,0,0,1,.019-.082.094.094,0,0,1,.066-.044.818.818,0,0,1,.1-.007h.374a.178.178,0,0,1,.075.014.1.1,0,0,1,.062.077.473.473,0,0,0,.032.11.748.748,0,0,0,.046.1c.021.032.041.062.062.089a.279.279,0,0,0,.052.052c.019.016.037.029.055.042a1,1,0,0,0,.252.108.252.252,0,0,0,.064.01.314.314,0,0,1,.067.009h.023a.431.431,0,0,0,.1.01.424.424,0,0,0,.1-.01.262.262,0,0,1,.048,0l.047-.007a.119.119,0,0,0,.049-.013.657.657,0,0,0,.253-.111.39.39,0,0,0,.132-.233.159.159,0,0,0,0-.075.493.493,0,0,0-.015-.065.391.391,0,0,0-.159-.2l-.052-.028a.665.665,0,0,0-.158-.067c-.056-.017-.113-.035-.169-.055l-.063-.017c-.021,0-.043-.009-.07-.017-.048-.015-.1-.028-.15-.038s-.1-.025-.148-.041a.1.1,0,0,0-.038-.01.076.076,0,0,1-.032-.01.513.513,0,0,1-.066-.018l-.068-.018c-.07-.026-.14-.051-.207-.078a1.246,1.246,0,0,1-.179-.091,1.091,1.091,0,0,1-.2-.164A.7.7,0,0,1,23.787,36a.414.414,0,0,1-.029-.087c-.006-.03-.014-.061-.023-.1a.907.907,0,0,1-.01-.252.169.169,0,0,0,.006-.056c.011-.034.018-.068.025-.1a.478.478,0,0,1,.026-.093.946.946,0,0,1,.18-.279,1.432,1.432,0,0,1,.256-.208.952.952,0,0,1,.2-.089c.071-.02.149-.041.229-.059a.563.563,0,0,1,.091-.011.816.816,0,0,0,.091-.012.1.1,0,0,1,.044,0C24.893,34.664,24.909,34.663,24.913,34.658Z"/><path class="cls-1" d="M28.057,34.771l.378.016.106,0a.147.147,0,0,1,.084.028.106.106,0,0,1,.052.077c.01.034.02.068.03.1.02.06.036.119.051.179a1.808,1.808,0,0,0,.049.186c.053.2.1.392.158.587s.106.392.157.587c.014.054.029.107.043.161s.029.107.041.161c.009.028.016.058.024.086a.275.275,0,0,0,.034.075.022.022,0,0,0,.012.014.028.028,0,0,1,.012.013.068.068,0,0,0,.072-.042c.012-.028.023-.056.035-.081a1.973,1.973,0,0,0,.073-.2c.023-.068.048-.137.076-.207.079-.2.154-.4.227-.6s.149-.4.227-.6c.019-.049.035-.1.052-.147s.037-.094.055-.144c.012-.024.024-.048.035-.073a.094.094,0,0,1,.05-.058.118.118,0,0,1,.079-.02l.091,0,.313.015.093,0a.155.155,0,0,1,.075.022.069.069,0,0,1,.028.087c-.012.042-.024.077-.033.105-.032.069-.061.142-.088.217s-.055.149-.083.222a.31.31,0,0,0-.022.055l-.02.056c-.027.064-.053.13-.076.2s-.051.135-.077.2c-.1.248-.193.5-.287.746s-.193.5-.286.747a2.263,2.263,0,0,0-.087.214c-.024.073-.051.143-.079.213-.018.043-.035.082-.052.117a.134.134,0,0,1-.1.069.309.309,0,0,1-.083,0l-.09-.006-.334-.016-.111,0a.173.173,0,0,1-.094-.026.127.127,0,0,1-.064-.089c-.008-.04-.019-.079-.03-.117-.019-.066-.035-.133-.053-.2s-.037-.133-.055-.2c-.06-.2-.115-.4-.169-.6s-.109-.405-.168-.606c-.023-.092-.048-.183-.07-.273s-.046-.179-.074-.267a.449.449,0,0,1-.024-.085.6.6,0,0,0-.023-.085c-.024-.089-.048-.177-.07-.263s-.049-.176-.075-.264c0-.028-.013-.056-.018-.082l-.026-.083,0-.048a.092.092,0,0,1,.009-.042.075.075,0,0,1,.062-.039.034.034,0,0,1,.021,0A.047.047,0,0,0,28.057,34.771Z"/><path class="cls-1" d="M31.377,34.946l.4.027.1.009a.09.09,0,0,1,.067.04.158.158,0,0,1,.019.087c0,.032,0,.07,0,.111l-.028.4-.109,1.618-.051.764c0,.041-.006.085-.008.136a.221.221,0,0,1-.028.111.145.145,0,0,1-.088.046.174.174,0,0,1-.07,0,.535.535,0,0,0-.074-.008l-.276-.019a.766.766,0,0,1-.095-.012.1.1,0,0,1-.068-.032.1.1,0,0,1-.025-.073c0-.03,0-.063,0-.1l.027-.405.115-1.7.047-.681c0-.043,0-.1.008-.154a.266.266,0,0,1,.029-.125.151.151,0,0,1,.063-.043.226.226,0,0,0,.027,0Z"/><path class="cls-1" d="M32.817,35.038l.377.035c.033,0,.068,0,.1,0a.174.174,0,0,1,.084.025.162.162,0,0,1,.067.062c.015.027.03.053.042.08l.143.28q.139.28.281.557c.094.186.188.372.279.56.046.087.09.177.133.268s.088.178.138.263c.011.02.021.04.03.06a.221.221,0,0,0,.039.054l.021.02a.025.025,0,0,0,.029,0,.037.037,0,0,0,.035-.039.335.335,0,0,1,.017-.068.639.639,0,0,0,.01-.072c0-.027,0-.053,0-.076l.028-.293.1-1.079.015-.177v-.047a.158.158,0,0,1,.007-.042l.006-.051a.174.174,0,0,1,.037-.1.087.087,0,0,1,.066-.031c.028,0,.058,0,.092,0l.284.026c.024,0,.049,0,.074.007a.181.181,0,0,1,.063.016.088.088,0,0,1,.059.087,1.139,1.139,0,0,1-.008.137l-.048.512-.177,1.95-.037.391c0,.035,0,.067-.007.1a.128.128,0,0,1-.021.077.087.087,0,0,1-.048.032l-.066.01-.162-.015-.256-.025-.08-.006a.149.149,0,0,1-.068-.021.172.172,0,0,1-.071-.068c-.017-.028-.032-.058-.048-.092s-.048-.092-.069-.139-.046-.094-.07-.141l-.6-1.18-.111-.219c-.035-.069-.071-.143-.107-.218a.7.7,0,0,1-.046-.087.093.093,0,0,0-.078-.056.109.109,0,0,0-.046.07c0,.029-.01.064-.012.108l-.029.325-.1,1.112-.015.181c0,.016,0,.03,0,.048a.083.083,0,0,1-.012.045l0,.052a.189.189,0,0,1-.034.105.086.086,0,0,1-.066.026.48.48,0,0,1-.089,0l-.285-.025-.075-.008a.188.188,0,0,1-.064-.015.1.1,0,0,1-.06-.088c0-.041,0-.087,0-.14l.05-.536.171-1.867.039-.433c0-.034.006-.069.009-.106a.178.178,0,0,1,.027-.088.108.108,0,0,1,.068-.04.153.153,0,0,0,.022,0Z"/><path class="cls-1" d="M37.654,35.458a1.6,1.6,0,0,1,.781.267,1.383,1.383,0,0,1,.441.531.839.839,0,0,1,.066.17c.014.057.028.118.037.185,0,.023.006.049.01.077a.132.132,0,0,1-.016.078.048.048,0,0,1-.039.031l-.059.009-.038,0a.2.2,0,0,1-.062,0,.673.673,0,0,0-.067-.011l-.1-.011c-.039,0-.077-.007-.113-.014s-.07-.015-.1-.021a.2.2,0,0,1-.068-.03.185.185,0,0,1-.044-.1.49.49,0,0,0-.035-.1.69.69,0,0,0-.2-.271,1,1,0,0,0-.207-.124.611.611,0,0,0-.191-.052.8.8,0,0,0-.209,0l-.07.008a.317.317,0,0,0-.066.014.8.8,0,0,0-.5.39,1,1,0,0,0-.057.109c-.017.039-.035.079-.057.121l-.017.059c-.006.017-.01.037-.016.059a.145.145,0,0,0-.015.058.19.19,0,0,1-.015.061.237.237,0,0,0-.017.075c0,.028,0,.051,0,.077a.232.232,0,0,0-.008.037.1.1,0,0,0,0,.038l-.006.041a.1.1,0,0,1,0,.048.088.088,0,0,0,0,.046.342.342,0,0,0,0,.076c0,.035,0,.066.008.1s.007.059.011.088a1.2,1.2,0,0,0,.127.352.781.781,0,0,0,.24.258.944.944,0,0,0,.1.053c.037.015.075.032.118.05.015,0,.028.009.042.012a.226.226,0,0,0,.044.008l.038,0a.136.136,0,0,0,.059.015c.026,0,.045,0,.059,0a.2.2,0,0,0,.044,0l.106-.006a.408.408,0,0,0,.1-.021.614.614,0,0,0,.2-.1,1.008,1.008,0,0,0,.156-.156.686.686,0,0,0,.061-.1,1.013,1.013,0,0,1,.056-.107c.012-.033.026-.063.037-.09a.121.121,0,0,1,.07-.058.179.179,0,0,1,.07,0l.079.01.283.035c.026,0,.055.006.086.012a.118.118,0,0,1,.068.026.091.091,0,0,1,.027.078.33.33,0,0,1-.024.1l-.044.122c-.021.045-.04.087-.061.129a.678.678,0,0,1-.069.119.436.436,0,0,0-.046.066.338.338,0,0,1-.046.064,1.354,1.354,0,0,1-.811.463.6.6,0,0,1-.1.016c-.035,0-.072,0-.106.006a.121.121,0,0,1-.046,0,.109.109,0,0,0-.045,0c-.02,0-.041,0-.062-.006h-.064l-.073-.008-.082-.011a.339.339,0,0,1-.079-.018.153.153,0,0,0-.047-.011l-.063-.017-.069-.019c-.03-.012-.059-.024-.087-.033s-.058-.022-.088-.035-.052-.027-.079-.041-.051-.029-.075-.044a1.469,1.469,0,0,1-.431-.381,1.588,1.588,0,0,1-.252-.519,1.234,1.234,0,0,1-.03-.145c-.007-.047-.015-.1-.024-.149a.147.147,0,0,1,0-.04.071.071,0,0,0,0-.035c0-.03,0-.059,0-.091a.486.486,0,0,0,0-.091.077.077,0,0,1,0-.041.113.113,0,0,0,0-.035l.01-.087a.259.259,0,0,1,0-.071.2.2,0,0,1,.017-.067.075.075,0,0,0,.007-.03v-.025l.006-.044a.431.431,0,0,0,.021-.076c.006-.028.012-.056.018-.083s.015-.048.022-.071a.663.663,0,0,1,.023-.068c.019-.043.035-.084.048-.125a.651.651,0,0,1,.052-.114c.021-.038.041-.077.064-.115a1.084,1.084,0,0,1,.07-.1,2.226,2.226,0,0,1,.183-.212.421.421,0,0,1,.057-.055c.022-.016.044-.033.062-.049a1.526,1.526,0,0,1,.27-.167,1.863,1.863,0,0,1,.308-.11c.04-.01.079-.019.121-.026s.084-.011.129-.015a.16.16,0,0,1,.055,0,.13.13,0,0,0,.055,0,.609.609,0,0,1,.071,0h.073a.027.027,0,0,1,.022,0A.031.031,0,0,0,37.654,35.458Z"/><path class="cls-1" d="M39.83,35.835l.4.059.1.017a.09.09,0,0,1,.064.044.153.153,0,0,1,.012.087c0,.035-.008.071-.013.112l-.059.4-.236,1.6-.111.757c0,.041-.012.084-.016.134a.205.205,0,0,1-.039.109.136.136,0,0,1-.09.039.2.2,0,0,1-.07-.006.725.725,0,0,0-.073-.017l-.273-.038c-.034-.006-.066-.012-.1-.019a.122.122,0,0,1-.066-.039.117.117,0,0,1-.018-.073c0-.032.006-.064.009-.1l.06-.4.248-1.686.1-.675c.008-.042.013-.093.019-.153a.266.266,0,0,1,.041-.122.13.13,0,0,1,.066-.037h.046Z"/><path class="cls-1" d="M42.833,36.3l.47.078c.04.006.079.014.118.021a.191.191,0,0,1,.089.041.059.059,0,0,1,.017.034.341.341,0,0,1,0,.046l0,.024a.22.22,0,0,1,0,.041.36.36,0,0,0-.007.045l-.032.181c0,.02,0,.041-.006.061a.283.283,0,0,1-.015.056.105.105,0,0,1-.107.068c-.048,0-.1-.011-.168-.022l-.469-.08c-.062-.01-.115-.016-.161-.02a.107.107,0,0,0-.1.073.073.073,0,0,0-.006.041.071.071,0,0,1-.012.04.247.247,0,0,0-.012.061c0,.024-.006.045-.008.063l-.069.41-.22,1.329-.071.433a1.091,1.091,0,0,1-.028.126.1.1,0,0,1-.072.066.222.222,0,0,1-.075,0c-.028-.006-.053-.008-.078-.013l-.314-.051c-.034-.007-.065-.013-.093-.021a.092.092,0,0,1-.061-.044.178.178,0,0,1-.009-.1c.009-.038.014-.077.021-.118l.075-.46.214-1.28.065-.393a.336.336,0,0,1,.013-.067.137.137,0,0,0,0-.062.138.138,0,0,1,.007-.044.111.111,0,0,0,0-.038.113.113,0,0,0-.082-.1c-.046-.011-.1-.023-.168-.034l-.427-.072c-.033-.005-.07-.011-.115-.015a.408.408,0,0,1-.1-.023.122.122,0,0,1-.05-.052.115.115,0,0,1,0-.063A.454.454,0,0,1,40.8,36.4l.037-.225a.6.6,0,0,1,.024-.1A.1.1,0,0,1,40.913,36,.174.174,0,0,1,40.968,36l.021,0Z"/></svg>